<svg id="Layer_1" data-name="Layer 1" xmlns="http://www.w3.org/2000/svg" viewBox="0 0 152 152"><defs><style>.cls-1{stroke:#000;stroke-miterlimit:10;stroke-width:2px;}</style></defs><path d="M142.21,154H13.79A11.8,11.8,0,0,1,2,142.21V13.79A11.8,11.8,0,0,1,13.79,2H142.21A11.8,11.8,0,0,1,154,13.79V142.21A11.8,11.8,0,0,1,142.21,154ZM13.79,8A5.8,5.8,0,0,0,8,13.79V142.21A5.8,5.8,0,0,0,13.79,148H142.21a5.8,5.8,0,0,0,5.79-5.79V13.79A5.8,5.8,0,0,0,142.21,8Z" transform="translate(-2 -2)"/><path class="cls-1" d="M29.56,93.68V61.9h-.1l-9.7,7V64.05l9.75-7H34V93.68Z" transform="translate(-2 -2)"/><path class="cls-1" d="M57.09,94.29a11.43,11.43,0,0,1-9.94-5.09q-3.57-5.08-3.57-13.85t3.59-13.8a11.46,11.46,0,0,1,9.92-5.11A11.41,11.41,0,0,1,67,61.53q3.55,5.09,3.56,13.8T67,89.19A11.4,11.4,0,0,1,57.09,94.29Zm-6.58-8a7.38,7.38,0,0,0,13.13,0q2.31-4,2.31-11T63.61,64.47a7.32,7.32,0,0,0-13.07,0q-2.37,4-2.37,10.85T50.51,86.3Z" transform="translate(-2 -2)"/><path class="cls-1" d="M89.61,94.29a11.44,11.44,0,0,1-9.94-5.09Q76.1,84.12,76.1,75.35t3.59-13.8a12.17,12.17,0,0,1,19.81,0q3.57,5.09,3.57,13.8T99.51,89.19A11.4,11.4,0,0,1,89.61,94.29ZM83,86.3a7.38,7.38,0,0,0,13.13,0q2.31-4,2.31-11T96.13,64.47a7.32,7.32,0,0,0-13.07,0q-2.37,4-2.36,10.85T83,86.3Z" transform="translate(-2 -2)"/><path class="cls-1" d="M122.13,94.29a11.44,11.44,0,0,1-9.94-5.09q-3.57-5.08-3.57-13.85t3.6-13.8a12.16,12.16,0,0,1,19.8,0q3.57,5.09,3.57,13.8T132,89.19A11.4,11.4,0,0,1,122.13,94.29Zm-6.57-8a7.37,7.37,0,0,0,13.12,0q2.31-4,2.31-11t-2.33-10.88a7.33,7.33,0,0,0-13.08,0q-2.35,4-2.36,10.85T115.56,86.3Z" transform="translate(-2 -2)"/></svg>