<svg id="Layer_1" data-name="Layer 1" xmlns="http://www.w3.org/2000/svg" viewBox="0 0 152 152"><defs><style>.cls-1{stroke:#000;stroke-miterlimit:10;stroke-width:2.5px;}</style></defs><path d="M142.21,154H13.79A11.8,11.8,0,0,1,2,142.21V13.79A11.8,11.8,0,0,1,13.79,2H142.21A11.8,11.8,0,0,1,154,13.79V142.21A11.8,11.8,0,0,1,142.21,154ZM13.79,8A5.8,5.8,0,0,0,8,13.79V142.21A5.8,5.8,0,0,0,13.79,148H142.21a5.8,5.8,0,0,0,5.79-5.79V13.79A5.8,5.8,0,0,0,142.21,8Z" transform="translate(-2 -2)"/><path class="cls-1" d="M28.07,95.8V62.17H28L17.7,69.56v-5.1L28,57h4.73V95.8Z" transform="translate(-2 -2)"/><path class="cls-1" d="M43.37,68.22A11,11,0,0,1,47,59.77a13,13,0,0,1,9.13-3.37,13,13,0,0,1,8.79,3.09A9.61,9.61,0,0,1,68.54,67a12,12,0,0,1-1.78,6.2,49,49,0,0,1-6.66,8L50.3,91.39v.11H69.18v4.3H43.61V92.47L57.26,78.1a42.73,42.73,0,0,0,5.16-6.23,8.57,8.57,0,0,0,1.28-4.54,6.09,6.09,0,0,0-2.24-4.75,8.54,8.54,0,0,0-11.13.21A7.17,7.17,0,0,0,48,68.22v0H43.37Z" transform="translate(-2 -2)"/><path class="cls-1" d="M89.35,96.44a12.12,12.12,0,0,1-10.52-5.38q-3.77-5.39-3.77-14.65t3.8-14.6a12.87,12.87,0,0,1,21,0q3.76,5.39,3.77,14.6T99.82,91A12.06,12.06,0,0,1,89.35,96.44Zm-7-8.46a7.7,7.7,0,0,0,7,4.25A7.61,7.61,0,0,0,96.27,88q2.45-4.23,2.45-11.59T96.25,64.9q-2.48-4.26-6.9-4.26c-3,0-5.27,1.43-6.93,4.27s-2.5,6.67-2.5,11.47S80.74,85.15,82.39,88Z" transform="translate(-2 -2)"/><path class="cls-1" d="M123.75,96.44a12.12,12.12,0,0,1-10.52-5.38q-3.77-5.39-3.77-14.65t3.8-14.6a12.87,12.87,0,0,1,21,0Q138,67.17,138,76.38T134.22,91A12.06,12.06,0,0,1,123.75,96.44Zm-7-8.46a7.8,7.8,0,0,0,13.88,0q2.45-4.23,2.45-11.59T130.65,64.9q-2.47-4.26-6.9-4.26c-3,0-5.27,1.43-6.93,4.27s-2.5,6.67-2.5,11.47S115.14,85.15,116.79,88Z" transform="translate(-2 -2)"/></svg>