<svg id="Layer_1" data-name="Layer 1" xmlns="http://www.w3.org/2000/svg" viewBox="0 0 152 152"><defs><style>.cls-1{stroke:#000;stroke-miterlimit:10;stroke-width:2.5px;}</style></defs><path d="M142.21,154H13.79A11.8,11.8,0,0,1,2,142.21V13.79A11.8,11.8,0,0,1,13.79,2H142.21A11.8,11.8,0,0,1,154,13.79V142.21A11.8,11.8,0,0,1,142.21,154ZM13.79,8A5.8,5.8,0,0,0,8,13.79V142.21A5.8,5.8,0,0,0,13.79,148H142.21a5.8,5.8,0,0,0,5.79-5.79V13.79A5.8,5.8,0,0,0,142.21,8Z" transform="translate(-2 -2)"/><path class="cls-1" d="M17.94,65.26a11,11,0,0,1,3.65-8.44,13,13,0,0,1,9.13-3.37,13.07,13.07,0,0,1,8.79,3.08,9.59,9.59,0,0,1,3.6,7.55,12,12,0,0,1-1.78,6.2,48.62,48.62,0,0,1-6.66,8l-9.8,10.13v.11H43.75v4.29H18.18V89.51L31.83,75.15A43,43,0,0,0,37,68.91a8.62,8.62,0,0,0,1.27-4.53A6.11,6.11,0,0,0,36,59.62a8,8,0,0,0-5.44-2,7.93,7.93,0,0,0-5.69,2.18,7.2,7.2,0,0,0-2.29,5.42v0H17.94Z" transform="translate(-2 -2)"/><path class="cls-1" d="M60.24,92.84V59.22h-.11L49.87,66.6V61.5l10.31-7.41h4.73V92.84Z" transform="translate(-2 -2)"/><path class="cls-1" d="M89.35,93.49A12.13,12.13,0,0,1,78.83,88.1q-3.77-5.38-3.77-14.65t3.8-14.59a12.87,12.87,0,0,1,21,0q3.76,5.39,3.77,14.6T99.82,88.09A12.06,12.06,0,0,1,89.35,93.49Zm-7-8.46a7.69,7.69,0,0,0,7,4.24A7.61,7.61,0,0,0,96.27,85q2.45-4.23,2.45-11.59T96.25,62q-2.48-4.26-6.9-4.26T82.42,62q-2.51,4.27-2.5,11.47Q79.92,80.78,82.39,85Z" transform="translate(-2 -2)"/><path class="cls-1" d="M123.75,93.49a12.13,12.13,0,0,1-10.52-5.39q-3.77-5.38-3.77-14.65t3.8-14.59a12.87,12.87,0,0,1,21,0Q138,64.22,138,73.43t-3.76,14.66A12.06,12.06,0,0,1,123.75,93.49Zm-7-8.46a7.8,7.8,0,0,0,13.88,0q2.45-4.23,2.45-11.59T130.65,62q-2.47-4.26-6.9-4.26T116.82,62q-2.5,4.27-2.5,11.47Q114.32,80.78,116.79,85Z" transform="translate(-2 -2)"/></svg>