<svg id="Layer_1" data-name="Layer 1" xmlns="http://www.w3.org/2000/svg" viewBox="0 0 152 152"><defs><style>.cls-1{stroke:#000;stroke-miterlimit:10;stroke-width:2px;}</style></defs><path d="M142.21,154H13.79A11.8,11.8,0,0,1,2,142.21V13.79A11.8,11.8,0,0,1,13.79,2H142.21A11.8,11.8,0,0,1,154,13.79V142.21A11.8,11.8,0,0,1,142.21,154ZM13.79,8A5.8,5.8,0,0,0,8,13.79V142.21A5.8,5.8,0,0,0,13.79,148H142.21a5.8,5.8,0,0,0,5.79-5.79V13.79A5.8,5.8,0,0,0,142.21,8Z" transform="translate(-2 -2)"/><path class="cls-1" d="M50.17,94.59V87.26H32.47v-4q2.27-4.22,5.77-9.64t9.68-14.28h6.5v24h5v3.85h-5v7.33ZM36.81,83.31v.1H50.17V63h-.08Q40.85,76.24,36.81,83.31Z" transform="translate(-2 -2)"/><path class="cls-1" d="M76.73,95.17a14.29,14.29,0,0,1-9.18-2.84A8.89,8.89,0,0,1,64,85.07,8.74,8.74,0,0,1,66,79.28,9.72,9.72,0,0,1,71.53,76v-.1a8.84,8.84,0,0,1-4.52-3A7.68,7.68,0,0,1,65.35,68a8.19,8.19,0,0,1,3.24-6.62,12.44,12.44,0,0,1,8.14-2.64,12.43,12.43,0,0,1,8.14,2.63,8.22,8.22,0,0,1,3.21,6.65,7.68,7.68,0,0,1-1.63,4.86,9,9,0,0,1-4.52,3V76a10,10,0,0,1,5.5,3.29,8.69,8.69,0,0,1,2.09,5.77,8.86,8.86,0,0,1-3.59,7.26A14.33,14.33,0,0,1,76.73,95.17Zm0-3.83a9.35,9.35,0,0,0,6-1.85,6,6,0,0,0,0-9.5,10.49,10.49,0,0,0-11.94,0,6,6,0,0,0,0,9.49A9.34,9.34,0,0,0,76.73,91.34Zm0-17.06a7.62,7.62,0,0,0,5-1.64,5.22,5.22,0,0,0,2-4.2,5.29,5.29,0,0,0-2-4.23,8.57,8.57,0,0,0-10.11,0,5.53,5.53,0,0,0,0,8.43A7.64,7.64,0,0,0,76.73,74.28Z" transform="translate(-2 -2)"/><path class="cls-1" d="M107.85,95.17a11,11,0,0,1-9.55-4.89Q94.87,85.39,94.87,77t3.45-13.27a11.68,11.68,0,0,1,19,0q3.44,4.89,3.43,13.27t-3.41,13.33A11,11,0,0,1,107.85,95.17Zm-6.32-7.69a7.1,7.1,0,0,0,12.62,0q2.22-3.85,2.23-10.54T114.13,66.5a7,7,0,0,0-12.57,0q-2.28,3.88-2.27,10.43T101.53,87.48Z" transform="translate(-2 -2)"/></svg>