<?xml version="1.0" encoding="utf-8"?>
<!-- Generator: Adobe Illustrator 26.0.1, SVG Export Plug-In . SVG Version: 6.00 Build 0)  -->
<svg version="1.1" id="Layer_1" xmlns="http://www.w3.org/2000/svg" xmlns:xlink="http://www.w3.org/1999/xlink" x="0px" y="0px"
	 viewBox="0 0 200 140" style="enable-background:new 0 0 200 140;" xml:space="preserve">
<style type="text/css">
	.st0{stroke:#000000;stroke-width:2;stroke-miterlimit:10;}
</style>
<g>
	<g>
		<path d="M144.422,120c-0.856,0-1.706-0.364-2.3-1.071c-1.065-1.269-0.9-3.161,0.369-4.227
			c13.352-11.209,21.009-27.275,21.009-44.078c0-16.941-7.762-33.093-21.295-44.315c-1.275-1.058-1.452-2.949-0.395-4.225
			s2.948-1.453,4.225-0.395C160.947,34.056,169.5,51.892,169.5,70.625c0,18.58-8.438,36.321-23.151,48.673
			C145.787,119.77,145.103,120,144.422,120z"/>
	</g>
	<g>
		<path d="M56.979,120c-0.673,0-1.35-0.226-1.909-0.688C40.091,106.938,31.5,89.071,31.5,70.294c0-18.528,8.4-36.237,23.046-48.588
			c1.266-1.068,3.159-0.908,4.228,0.359c1.068,1.267,0.907,3.159-0.359,4.228C45.123,37.501,37.5,53.539,37.5,70.294
			c0,16.981,7.797,33.162,21.391,44.393c1.277,1.055,1.458,2.946,0.402,4.224C58.7,119.629,57.842,120,56.979,120z"/>
	</g>
	<g>
		<path d="M166.311,139c-0.799,0-1.596-0.317-2.187-0.945c-1.135-1.207-1.076-3.105,0.131-4.24
			c17.897-16.829,27.755-39.358,27.755-63.438c0-24.471-10.136-47.26-28.539-64.167c-1.221-1.121-1.301-3.019-0.18-4.239
			c1.12-1.22,3.019-1.3,4.238-0.179c19.655,18.057,30.48,42.415,30.48,68.585c0,25.752-10.528,49.833-29.646,67.809
			C167.785,138.73,167.047,139,166.311,139z"/>
	</g>
	<g>
		<path d="M34.659,139c-0.709,0-1.422-0.25-1.994-0.759C12.859,120.611,1.5,95.681,1.5,69.841c0-26.033,10.94-50.208,30.804-68.071
			c1.232-1.108,3.129-1.007,4.236,0.225c1.108,1.232,1.007,3.128-0.225,4.236C17.734,22.941,7.5,45.532,7.5,69.841
			c0,24.129,10.626,47.426,29.155,63.918c1.238,1.102,1.348,2.998,0.246,4.235C36.308,138.66,35.485,139,34.659,139z"/>
	</g>
	<g>
		<path class="st0" d="M78.134,95.736c-4.515,0-8.283-1.275-11.303-3.827c-3.021-2.552-4.651-5.834-4.891-9.847h5.791
			c0.262,2.508,1.363,4.553,3.304,6.133c1.941,1.582,4.329,2.373,7.165,2.373c3.206,0,5.817-1.004,7.835-3.01
			c2.017-2.007,3.026-4.602,3.026-7.787c0-3.184-1.009-5.795-3.026-7.834c-2.018-2.04-4.597-3.06-7.737-3.06
			c-2.203,0-4.199,0.469-5.987,1.407c-1.789,0.938-3.163,2.236-4.122,3.893H62.66l2.584-26.434h27.022v5.234H70.086l-1.439,15.376
			h0.131c1.068-1.417,2.536-2.53,4.4-3.337c1.865-0.807,3.92-1.21,6.167-1.21c4.536,0,8.271,1.488,11.205,4.466
			c2.933,2.977,4.4,6.755,4.4,11.335c0,4.733-1.57,8.604-4.711,11.614S83.062,95.736,78.134,95.736z"/>
		<path class="st0" d="M144.012,75.421c0,6.391-1.762,11.374-5.284,14.95c-3.522,3.578-8.435,5.365-14.737,5.365
			c-6.588,0-11.838-2.229-15.753-6.689c-3.915-4.46-5.872-10.441-5.872-17.944c0-7.372,1.951-13.238,5.855-17.601
			c3.904-4.362,9.16-6.543,15.77-6.543c5.104,0,9.448,1.402,13.036,4.204c3.587,2.803,5.817,6.549,6.69,11.238h-6.184
			c-0.98-3.184-2.655-5.648-5.021-7.394c-2.367-1.745-5.207-2.617-8.521-2.617c-4.864,0-8.676,1.652-11.435,4.957
			c-2.759,3.304-4.138,7.879-4.138,13.724c0,5.932,1.395,10.621,4.188,14.066c2.791,3.447,6.586,5.17,11.385,5.17
			c4.188,0,7.59-1.238,10.207-3.713c2.617-2.476,3.926-5.688,3.926-9.635v-0.852h-13.315v-5.168h19.204V75.421z"/>
	</g>
</g>
<g>
</g>
<g>
</g>
<g>
</g>
<g>
</g>
<g>
</g>
<g>
</g>
<g>
</g>
<g>
</g>
<g>
</g>
<g>
</g>
<g>
</g>
<g>
</g>
<g>
</g>
<g>
</g>
<g>
</g>
</svg>
