<svg id="Layer_1" data-name="Layer 1" xmlns="http://www.w3.org/2000/svg" viewBox="0 0 152 152"><defs><style>.cls-1{stroke:#000;stroke-miterlimit:10;stroke-width:1.5px;}</style></defs><path d="M142.21,154H13.79A11.8,11.8,0,0,1,2,142.21V13.79A11.8,11.8,0,0,1,13.79,2H142.21A11.8,11.8,0,0,1,154,13.79V142.21A11.8,11.8,0,0,1,142.21,154ZM13.79,8A5.8,5.8,0,0,0,8,13.79V142.21A5.8,5.8,0,0,0,13.79,148H142.21a5.8,5.8,0,0,0,5.79-5.79V13.79A5.8,5.8,0,0,0,142.21,8Z" transform="translate(-2 -2)"/><path class="cls-1" d="M40.31,99.7a15.22,15.22,0,0,1-8.8-2.6,16.55,16.55,0,0,1-5.87-7.39,30.65,30.65,0,0,1-2.19-12.22Q23.45,66.27,28,60a14.8,14.8,0,0,1,12.69-6.24,15.19,15.19,0,0,1,9.66,3.13,13.83,13.83,0,0,1,5.08,8.37H49.79a8.91,8.91,0,0,0-3.39-4.81,9.61,9.61,0,0,0-5.78-1.8A9.66,9.66,0,0,0,32,63.44c-2,3.17-3.1,7.72-3.2,13.62h.09a11.66,11.66,0,0,1,4.89-5.23,14.7,14.7,0,0,1,7.51-2A14.34,14.34,0,0,1,56,84.54a14.47,14.47,0,0,1-4.44,10.87A15.6,15.6,0,0,1,40.31,99.7Zm-7.24-7.89a9.71,9.71,0,0,0,7.18,3,9.84,9.84,0,0,0,7.2-2.92,10.31,10.31,0,0,0,.12-14.32,9.8,9.8,0,0,0-7.23-2.82,10.11,10.11,0,0,0-7.3,2.8,9.38,9.38,0,0,0-2.91,7A9.9,9.9,0,0,0,33.07,91.81Z" transform="translate(-2 -2)"/><path class="cls-1" d="M79.22,99.7a15.17,15.17,0,0,1-8.79-2.6,16.5,16.5,0,0,1-5.88-7.39,30.66,30.66,0,0,1-2.18-12.22q0-11.22,4.53-17.47a14.8,14.8,0,0,1,12.69-6.24,15.17,15.17,0,0,1,9.66,3.13,13.83,13.83,0,0,1,5.08,8.37H88.7a8.91,8.91,0,0,0-3.39-4.81,10.16,10.16,0,0,0-14.39,3c-2,3.17-3.1,7.72-3.2,13.62h.09a11.77,11.77,0,0,1,4.89-5.23,14.7,14.7,0,0,1,7.51-2A14.34,14.34,0,0,1,94.94,84.54,14.47,14.47,0,0,1,90.5,95.41,15.59,15.59,0,0,1,79.22,99.7ZM72,91.81a9.71,9.71,0,0,0,7.18,3,9.84,9.84,0,0,0,7.2-2.92,10.31,10.31,0,0,0,.12-14.32,9.79,9.79,0,0,0-7.23-2.82,10.13,10.13,0,0,0-7.3,2.8,9.38,9.38,0,0,0-2.91,7A9.9,9.9,0,0,0,72,91.81Z" transform="translate(-2 -2)"/><path class="cls-1" d="M101.8,67.34A12.6,12.6,0,0,1,106,57.67a16.1,16.1,0,0,1,20.52-.33A11,11,0,0,1,130.62,66a13.62,13.62,0,0,1-2,7.1,55.36,55.36,0,0,1-7.63,9.2l-11.22,11.6V94h21.62v4.92H102.08V95.12L117.7,78.66a47.9,47.9,0,0,0,5.92-7.13,9.89,9.89,0,0,0,1.47-5.2,7,7,0,0,0-2.57-5.45,9.18,9.18,0,0,0-6.23-2.24,9.07,9.07,0,0,0-6.52,2.49,8.2,8.2,0,0,0-2.62,6.21v0H101.8Z" transform="translate(-2 -2)"/></svg>