<svg id="Layer_1" data-name="Layer 1" xmlns="http://www.w3.org/2000/svg" viewBox="0 0 152 152"><defs><style>.cls-1{stroke:#000;stroke-miterlimit:10;stroke-width:1.5px;}</style></defs><path d="M142.21,154H13.79A11.8,11.8,0,0,1,2,142.21V13.79A11.8,11.8,0,0,1,13.79,2H142.21A11.8,11.8,0,0,1,154,13.79V142.21A11.8,11.8,0,0,1,142.21,154ZM13.79,8A5.8,5.8,0,0,0,8,13.79V142.21A5.8,5.8,0,0,0,13.79,148H142.21a5.8,5.8,0,0,0,5.79-5.79V13.79A5.8,5.8,0,0,0,142.21,8Z" transform="translate(-2 -2)"/><path class="cls-1" d="M26.81,97.93,46.9,58.59v-.12H23V53.54H52.37v5.14L32.62,97.93Z" transform="translate(-2 -2)"/><path class="cls-1" d="M74.82,98.67a13.87,13.87,0,0,1-12-6.17q-4.32-6.16-4.32-16.78T62.81,59a13.87,13.87,0,0,1,12-6.2,13.84,13.84,0,0,1,12,6.16q4.32,6.18,4.32,16.72t-4.31,16.8A13.81,13.81,0,0,1,74.82,98.67Zm-8-9.69q2.82,4.86,8,4.86T82.76,89q2.8-4.84,2.8-13.28T82.73,62.54q-2.83-4.87-7.91-4.87t-7.93,4.89Q64,67.45,64,75.69,64,84.12,66.86,89Z" transform="translate(-2 -2)"/><path class="cls-1" d="M114.23,98.67a13.87,13.87,0,0,1-12-6.17q-4.32-6.16-4.32-16.78T102.21,59a14.74,14.74,0,0,1,24,0q4.32,6.18,4.32,16.72t-4.31,16.8A13.8,13.8,0,0,1,114.23,98.67Zm-8-9.69q2.83,4.86,8,4.86A8.72,8.72,0,0,0,122.16,89Q125,84.16,125,75.72t-2.83-13.18q-2.82-4.87-7.9-4.87t-7.94,4.89q-2.87,4.89-2.86,13.13Q103.43,84.12,106.26,89Z" transform="translate(-2 -2)"/></svg>