<svg id="Layer_1" data-name="Layer 1" xmlns="http://www.w3.org/2000/svg" viewBox="0 0 152 152"><defs><style>.cls-1{stroke:#000;stroke-miterlimit:10;stroke-width:2px;}</style></defs><path d="M142.21,154H13.79A11.8,11.8,0,0,1,2,142.21V13.79A11.8,11.8,0,0,1,13.79,2H142.21A11.8,11.8,0,0,1,154,13.79V142.21A11.8,11.8,0,0,1,142.21,154ZM13.79,8A5.8,5.8,0,0,0,8,13.79V142.21A5.8,5.8,0,0,0,13.79,148H142.21a5.8,5.8,0,0,0,5.79-5.79V13.79A5.8,5.8,0,0,0,142.21,8Z" transform="translate(-2 -2)"/><path class="cls-1" d="M24.45,94.59,40.39,63.36v-.09h-19V59.36H44.73v4.08L29.06,94.59Z" transform="translate(-2 -2)"/><path class="cls-1" d="M59.7,94.59V64h-.1l-9.33,6.72V66.1l9.38-6.74H64V94.59Z" transform="translate(-2 -2)"/><path class="cls-1" d="M86.16,95.17a11,11,0,0,1-9.56-4.89Q73.18,85.39,73.17,77t3.46-13.27a11.68,11.68,0,0,1,19,0q3.43,4.89,3.43,13.27T95.68,90.27A11,11,0,0,1,86.16,95.17Zm-6.32-7.69a7.1,7.1,0,0,0,12.62,0Q94.68,83.65,94.68,77T92.44,66.5a7,7,0,0,0-12.58,0q-2.27,3.88-2.27,10.43T79.84,87.48Z" transform="translate(-2 -2)"/><path class="cls-1" d="M128.57,94.59,125,84.5H111l-3.54,10.09h-4.61l13-35.23h4.34l13,35.23ZM118,64.71l-5.64,16.06h11.42l-5.64-16.06Z" transform="translate(-2 -2)"/></svg>