<svg id="Layer_1" data-name="Layer 1" xmlns="http://www.w3.org/2000/svg" viewBox="0 0 152 152"><defs><style>.cls-1{stroke:#000;stroke-miterlimit:10;stroke-width:1.5px;}</style></defs><path d="M142.21,154H13.79A11.8,11.8,0,0,1,2,142.21V13.79A11.8,11.8,0,0,1,13.79,2H142.21A11.8,11.8,0,0,1,154,13.79V142.21A11.8,11.8,0,0,1,142.21,154ZM13.79,8A5.8,5.8,0,0,0,8,13.79V142.21A5.8,5.8,0,0,0,13.79,148H142.21a5.8,5.8,0,0,0,5.79-5.79V13.79A5.8,5.8,0,0,0,142.21,8Z" transform="translate(-2 -2)"/><path class="cls-1" d="M28.48,99.43,48.57,60.09V60H24.67V55H54v5.14L34.29,99.43Z" transform="translate(-2 -2)"/><path class="cls-1" d="M61.3,67.84a12.6,12.6,0,0,1,4.18-9.67,14.81,14.81,0,0,1,10.46-3.86A15,15,0,0,1,86,57.84a11,11,0,0,1,4.12,8.65,13.62,13.62,0,0,1-2,7.1,55.36,55.36,0,0,1-7.63,9.2L69.24,94.39v.12H90.86v4.92H61.58V95.62L77.2,79.16A48.8,48.8,0,0,0,83.13,72a10,10,0,0,0,1.46-5.2A7,7,0,0,0,82,61.38a9.17,9.17,0,0,0-6.23-2.24,9.07,9.07,0,0,0-6.52,2.49,8.2,8.2,0,0,0-2.62,6.21v0H61.3Z" transform="translate(-2 -2)"/><path class="cls-1" d="M114,100.17a13.86,13.86,0,0,1-12-6.17Q97.6,87.84,97.6,77.22T102,60.51a14.73,14.73,0,0,1,24,0q4.32,6.18,4.33,16.72T126,94A13.81,13.81,0,0,1,114,100.17Zm-8-9.69q2.83,4.86,8,4.86t7.94-4.84q2.79-4.84,2.8-13.28T121.87,64Q119,59.16,114,59.17T106,64.06q-2.86,4.89-2.87,13.13Q103.16,85.62,106,90.48Z" transform="translate(-2 -2)"/></svg>