<svg id="Layer_1" data-name="Layer 1" xmlns="http://www.w3.org/2000/svg" viewBox="0 0 152 152"><defs><style>.cls-1{stroke:#000;stroke-miterlimit:10;stroke-width:2px;}</style></defs><path d="M142.21,154H13.79A11.8,11.8,0,0,1,2,142.21V13.79A11.8,11.8,0,0,1,13.79,2H142.21A11.8,11.8,0,0,1,154,13.79V142.21A11.8,11.8,0,0,1,142.21,154ZM13.79,8A5.8,5.8,0,0,0,8,13.79V142.21A5.8,5.8,0,0,0,13.79,148H142.21a5.8,5.8,0,0,0,5.79-5.79V13.79A5.8,5.8,0,0,0,142.21,8Z" transform="translate(-2 -2)"/><path class="cls-1" d="M20.14,94.59,36.08,63.36v-.09h-19V59.36H40.43v4.08L24.75,94.59Z" transform="translate(-2 -2)"/><path class="cls-1" d="M53.58,78.33V74.62h4.23a7.07,7.07,0,0,0,4.95-1.75,5.7,5.7,0,0,0,1.93-4.43,5.43,5.43,0,0,0-1.78-4.27,7.33,7.33,0,0,0-5-1.59,7.41,7.41,0,0,0-4.94,1.61,6.37,6.37,0,0,0-2.19,4.4H46.5A10.13,10.13,0,0,1,50,61.43a12,12,0,0,1,8.07-2.66A12.13,12.13,0,0,1,66,61.34a8,8,0,0,1,3.15,6.51,8.18,8.18,0,0,1-2,5.55,8.8,8.8,0,0,1-5.28,2.83v.1a9.62,9.62,0,0,1,6.38,2.55,8.05,8.05,0,0,1,2.36,6A9,9,0,0,1,69,90.22a10.77,10.77,0,0,1-4.49,3.66,15,15,0,0,1-6.27,1.29,13.51,13.51,0,0,1-8.82-2.73,9.57,9.57,0,0,1-3.59-7.18H50a6.19,6.19,0,0,0,2.46,4.43,9,9,0,0,0,5.67,1.68,9,9,0,0,0,5.75-1.79A5.54,5.54,0,0,0,66.16,85,6,6,0,0,0,64,80.13a9.13,9.13,0,0,0-6-1.8Z" transform="translate(-2 -2)"/><path class="cls-1" d="M89.27,95.17a11,11,0,0,1-9.55-4.89Q76.29,85.39,76.29,77t3.45-13.27a11.68,11.68,0,0,1,19,0q3.43,4.89,3.43,13.27T98.8,90.27A11,11,0,0,1,89.27,95.17ZM83,87.48a7.1,7.1,0,0,0,12.62,0Q97.79,83.65,97.79,77T95.55,66.5a7,7,0,0,0-12.57,0q-2.28,3.88-2.27,10.43T83,87.48Z" transform="translate(-2 -2)"/><path class="cls-1" d="M138.49,80q0,7.15-3.94,11.16t-11,4q-7.38,0-11.76-5t-4.38-13.39q0-8.25,4.37-13.13t11.77-4.89a15.34,15.34,0,0,1,9.73,3.14,13.34,13.34,0,0,1,5,8.39h-4.61A11,11,0,0,0,115,66.52q-3.09,3.7-3.09,10.25t3.12,10.49a10.35,10.35,0,0,0,8.5,3.86,10.65,10.65,0,0,0,7.62-2.77,9.46,9.46,0,0,0,2.93-7.19v-.63h-9.94V76.67h14.33Z" transform="translate(-2 -2)"/></svg>