<svg id="Layer_1" data-name="Layer 1" xmlns="http://www.w3.org/2000/svg" viewBox="0 0 152 152"><defs><style>.cls-1{stroke:#000;stroke-miterlimit:10;stroke-width:2px;}</style></defs><path d="M142.21,154H13.79A11.8,11.8,0,0,1,2,142.21V13.79A11.8,11.8,0,0,1,13.79,2H142.21A11.8,11.8,0,0,1,154,13.79V142.21A11.8,11.8,0,0,1,142.21,154ZM13.79,8A5.8,5.8,0,0,0,8,13.79V142.21A5.8,5.8,0,0,0,13.79,148H142.21a5.8,5.8,0,0,0,5.79-5.79V13.79A5.8,5.8,0,0,0,142.21,8Z" transform="translate(-2 -2)"/><path class="cls-1" d="M20.14,94.59,36.08,63.36v-.09h-19V59.36H40.43v4.08L24.75,94.59Z" transform="translate(-2 -2)"/><path class="cls-1" d="M58.51,95.17a12.63,12.63,0,0,1-8.43-2.85A10.05,10.05,0,0,1,46.43,85h4.32a6.59,6.59,0,0,0,2.47,4.58,8.19,8.19,0,0,0,5.34,1.77,7.91,7.91,0,0,0,5.85-2.25,7.82,7.82,0,0,0,2.26-5.81,8,8,0,0,0-2.26-5.85,7.77,7.77,0,0,0-5.77-2.28,9.45,9.45,0,0,0-4.47,1.05,7.51,7.51,0,0,0-3.08,2.9H47L48.9,59.36H69.06v3.91H52.51L51.43,74.74h.1a7.91,7.91,0,0,1,3.29-2.49,11.48,11.48,0,0,1,4.6-.9,11.25,11.25,0,0,1,8.36,3.33,12.49,12.49,0,0,1-.23,17.12A12.53,12.53,0,0,1,58.51,95.17Z" transform="translate(-2 -2)"/><path class="cls-1" d="M88.93,95.17a11,11,0,0,1-9.56-4.89Q76,85.39,75.94,77T79.4,63.69a11.68,11.68,0,0,1,19,0q3.44,4.89,3.43,13.27T98.45,90.27A11,11,0,0,1,88.93,95.17Zm-6.32-7.69a7.1,7.1,0,0,0,12.62,0Q97.45,83.65,97.45,77T95.21,66.5a7,7,0,0,0-12.58,0q-2.26,3.88-2.27,10.43T82.61,87.48Z" transform="translate(-2 -2)"/><path class="cls-1" d="M138.15,80q0,7.15-3.94,11.16t-11,4q-7.38,0-11.76-5t-4.38-13.39q0-8.25,4.37-13.13t11.77-4.89a15.34,15.34,0,0,1,9.73,3.14,13.39,13.39,0,0,1,5,8.39h-4.62a10,10,0,0,0-10.1-7.47,10.54,10.54,0,0,0-8.54,3.69q-3.08,3.7-3.08,10.25t3.12,10.49a10.33,10.33,0,0,0,8.5,3.86,10.61,10.61,0,0,0,7.61-2.77,9.42,9.42,0,0,0,2.93-7.19v-.63h-9.93V76.67h14.33Z" transform="translate(-2 -2)"/></svg>