<svg id="Layer_1" data-name="Layer 1" xmlns="http://www.w3.org/2000/svg" viewBox="0 0 152 152"><defs><style>.cls-1{stroke:#000;stroke-miterlimit:10;stroke-width:2px;}</style></defs><path d="M142.21,154H13.79A11.8,11.8,0,0,1,2,142.21V13.79A11.8,11.8,0,0,1,13.79,2H142.21A11.8,11.8,0,0,1,154,13.79V142.21A11.8,11.8,0,0,1,142.21,154ZM13.79,8A5.8,5.8,0,0,0,8,13.79V142.21A5.8,5.8,0,0,0,13.79,148H142.21a5.8,5.8,0,0,0,5.79-5.79V13.79A5.8,5.8,0,0,0,142.21,8Z" transform="translate(-2 -2)"/><path class="cls-1" d="M19.88,94.59,35.82,63.36v-.09h-19V59.36H40.17v4.08L24.5,94.59Z" transform="translate(-2 -2)"/><path class="cls-1" d="M58.41,95.2a12.16,12.16,0,0,1-7-2.06,13.2,13.2,0,0,1-4.66-5.88A24.26,24.26,0,0,1,45,77.57q0-8.91,3.6-13.87a11.74,11.74,0,0,1,10.07-5,12,12,0,0,1,7.66,2.49,10.93,10.93,0,0,1,4,6.64H65.93a7.06,7.06,0,0,0-2.69-3.82,8.08,8.08,0,0,0-11.43,2.35q-2.41,3.8-2.54,10.82h.08a9.23,9.23,0,0,1,3.88-4.15,11.66,11.66,0,0,1,6-1.56,11.84,11.84,0,0,1,8.16,20.27A12.35,12.35,0,0,1,58.41,95.2Zm-5.75-6.26a7.7,7.7,0,0,0,5.7,2.35A7.8,7.8,0,0,0,64.07,89a8.19,8.19,0,0,0,.1-11.36,7.8,7.8,0,0,0-5.74-2.24,8,8,0,0,0-5.8,2.23,7.42,7.42,0,0,0-2.31,5.59A7.85,7.85,0,0,0,52.66,88.94Z" transform="translate(-2 -2)"/><path class="cls-1" d="M88.65,95.17a12.62,12.62,0,0,1-8.43-2.85A10,10,0,0,1,76.57,85h4.32a6.55,6.55,0,0,0,2.47,4.58,8.17,8.17,0,0,0,5.34,1.77,8,8,0,0,0,5.85-2.25,7.86,7.86,0,0,0,2.26-5.81,8,8,0,0,0-2.26-5.85,7.78,7.78,0,0,0-5.77-2.28,9.45,9.45,0,0,0-4.47,1.05,7.51,7.51,0,0,0-3.08,2.9H77.1L79,59.36H99.2v3.91H82.65L81.57,74.74h.1A7.91,7.91,0,0,1,85,72.25a11.48,11.48,0,0,1,4.6-.9,11.25,11.25,0,0,1,8.36,3.33,12.49,12.49,0,0,1-.23,17.12A12.53,12.53,0,0,1,88.65,95.17Z" transform="translate(-2 -2)"/><path class="cls-1" d="M137,80q0,7.15-3.94,11.16t-11,4a14.84,14.84,0,0,1-11.75-5q-4.38-5-4.38-13.39t4.37-13.13q4.36-4.89,11.76-4.89a15.34,15.34,0,0,1,9.73,3.14,13.34,13.34,0,0,1,5,8.39h-4.61a10,10,0,0,0-10.11-7.47,10.52,10.52,0,0,0-8.53,3.69q-3.09,3.7-3.09,10.25t3.13,10.49a10.32,10.32,0,0,0,8.49,3.86,10.61,10.61,0,0,0,7.62-2.77,9.46,9.46,0,0,0,2.93-7.19v-.63h-9.94V76.67H137Z" transform="translate(-2 -2)"/></svg>