<svg id="Layer_1" data-name="Layer 1" xmlns="http://www.w3.org/2000/svg" viewBox="0 0 152 152"><defs><style>.cls-1{stroke:#000;stroke-miterlimit:10;stroke-width:2px;}</style></defs><path d="M142.21,154H13.79A11.8,11.8,0,0,1,2,142.21V13.79A11.8,11.8,0,0,1,13.79,2H142.21A11.8,11.8,0,0,1,154,13.79V142.21A11.8,11.8,0,0,1,142.21,154ZM13.79,8A5.8,5.8,0,0,0,8,13.79V142.21A5.8,5.8,0,0,0,13.79,148H142.21a5.8,5.8,0,0,0,5.79-5.79V13.79A5.8,5.8,0,0,0,142.21,8Z" transform="translate(-2 -2)"/><path class="cls-1" d="M21.39,94.59l16-31.23v-.09h-19V59.36H41.68v4.08L26,94.59Z" transform="translate(-2 -2)"/><path class="cls-1" d="M49.69,94.59,65.63,63.36v-.09h-19V59.36H70v4.08L54.3,94.59Z" transform="translate(-2 -2)"/><path class="cls-1" d="M88.06,95.17a14.33,14.33,0,0,1-9.18-2.84,8.88,8.88,0,0,1-3.58-7.26,8.79,8.79,0,0,1,2.07-5.79A9.72,9.72,0,0,1,82.86,76v-.1a8.81,8.81,0,0,1-4.51-3A7.68,7.68,0,0,1,76.69,68a8.21,8.21,0,0,1,3.23-6.62,12.46,12.46,0,0,1,8.14-2.64,12.46,12.46,0,0,1,8.15,2.63,8.22,8.22,0,0,1,3.21,6.65,7.69,7.69,0,0,1-1.64,4.86,8.92,8.92,0,0,1-4.52,3V76a10,10,0,0,1,5.51,3.29,8.74,8.74,0,0,1,2.09,5.77,8.89,8.89,0,0,1-3.59,7.26A14.34,14.34,0,0,1,88.06,95.17Zm0-3.83a9.31,9.31,0,0,0,6-1.85A6,6,0,0,0,94,80a10.49,10.49,0,0,0-11.94,0,5.85,5.85,0,0,0-2.33,4.75,5.78,5.78,0,0,0,2.35,4.74A9.33,9.33,0,0,0,88.06,91.34Zm0-17.06a7.63,7.63,0,0,0,5-1.64,5.21,5.21,0,0,0,2-4.2,5.28,5.28,0,0,0-1.95-4.23,8.57,8.57,0,0,0-10.11,0,5.53,5.53,0,0,0,0,8.43A7.61,7.61,0,0,0,88.06,74.28Z" transform="translate(-2 -2)"/><path class="cls-1" d="M137.13,80q0,7.15-3.94,11.16t-11,4a14.84,14.84,0,0,1-11.75-5q-4.38-5-4.39-13.39t4.37-13.13q4.38-4.89,11.77-4.89a15.34,15.34,0,0,1,9.73,3.14,13.34,13.34,0,0,1,5,8.39H132.3a10,10,0,0,0-10.11-7.47,10.52,10.52,0,0,0-8.53,3.69q-3.09,3.7-3.09,10.25t3.13,10.49a10.32,10.32,0,0,0,8.49,3.86,10.61,10.61,0,0,0,7.62-2.77,9.46,9.46,0,0,0,2.93-7.19v-.63H122.8V76.67h14.33Z" transform="translate(-2 -2)"/></svg>