<svg id="Layer_1" data-name="Layer 1" xmlns="http://www.w3.org/2000/svg" viewBox="0 0 152 152"><defs><style>.cls-1{stroke:#000;stroke-miterlimit:10;stroke-width:2px;}</style></defs><path d="M142.21,154H13.79A11.8,11.8,0,0,1,2,142.21V13.79A11.8,11.8,0,0,1,13.79,2H142.21A11.8,11.8,0,0,1,154,13.79V142.21A11.8,11.8,0,0,1,142.21,154ZM13.79,8A5.8,5.8,0,0,0,8,13.79V142.21A5.8,5.8,0,0,0,13.79,148H142.21a5.8,5.8,0,0,0,5.79-5.79V13.79A5.8,5.8,0,0,0,142.21,8Z" transform="translate(-2 -2)"/><path class="cls-1" d="M28.53,95.17a14.29,14.29,0,0,1-9.18-2.84,8.89,8.89,0,0,1-3.59-7.26,8.74,8.74,0,0,1,2.08-5.79A9.72,9.72,0,0,1,23.33,76v-.1a8.84,8.84,0,0,1-4.52-3A7.74,7.74,0,0,1,17.15,68a8.19,8.19,0,0,1,3.24-6.62,12.44,12.44,0,0,1,8.14-2.64,12.43,12.43,0,0,1,8.14,2.63,8.22,8.22,0,0,1,3.21,6.65,7.68,7.68,0,0,1-1.63,4.86,8.92,8.92,0,0,1-4.52,3V76a10,10,0,0,1,5.51,3.29,8.73,8.73,0,0,1,2.08,5.77,8.86,8.86,0,0,1-3.59,7.26A14.33,14.33,0,0,1,28.53,95.17Zm0-3.83a9.35,9.35,0,0,0,6-1.85,6,6,0,0,0,0-9.5,9.3,9.3,0,0,0-6-1.86,9.26,9.26,0,0,0-6,1.87,6,6,0,0,0,0,9.49A9.34,9.34,0,0,0,28.53,91.34Zm0-17.06a7.62,7.62,0,0,0,5-1.64,5.22,5.22,0,0,0,2-4.2,5.29,5.29,0,0,0-2-4.23,7.54,7.54,0,0,0-5-1.65,7.54,7.54,0,0,0-5.05,1.65,5.51,5.51,0,0,0,0,8.43A7.59,7.59,0,0,0,28.53,74.28Z" transform="translate(-2 -2)"/><path class="cls-1" d="M59.66,95.17a11,11,0,0,1-9.56-4.89Q46.67,85.39,46.67,77t3.45-13.27a11,11,0,0,1,9.54-4.92,11,11,0,0,1,9.51,4.9q3.42,4.89,3.42,13.27T69.18,90.27A11,11,0,0,1,59.66,95.17Zm-6.33-7.69A7.1,7.1,0,0,0,66,87.5Q68.17,83.65,68.18,77T65.93,66.5a7,7,0,0,0-12.57,0q-2.28,3.88-2.27,10.43T53.33,87.48Z" transform="translate(-2 -2)"/><path class="cls-1" d="M90.93,95.17a11,11,0,0,1-9.56-4.89Q77.94,85.39,77.94,77t3.45-13.27a11.69,11.69,0,0,1,19,0q3.42,4.89,3.43,13.27t-3.42,13.33A11,11,0,0,1,90.93,95.17ZM84.6,87.48a7.1,7.1,0,0,0,12.63,0Q99.45,83.65,99.45,77T97.2,66.5a7,7,0,0,0-12.57,0q-2.26,3.88-2.27,10.43T84.6,87.48Z" transform="translate(-2 -2)"/><path class="cls-1" d="M114.83,59.36V81.94a9,9,0,0,0,2.55,6.63,11,11,0,0,0,14.08,0A8.94,8.94,0,0,0,134,81.94V59.36h4.39V82.23a12.34,12.34,0,0,1-3.77,9.34q-3.78,3.6-10.22,3.6t-10.22-3.6a12.34,12.34,0,0,1-3.77-9.34V59.36Z" transform="translate(-2 -2)"/></svg>