<svg id="Layer_1" data-name="Layer 1" xmlns="http://www.w3.org/2000/svg" viewBox="0 0 152 152"><defs><style>.cls-1{stroke:#000;stroke-miterlimit:10;stroke-width:2px;}</style></defs><path d="M142.21,154H13.79A11.8,11.8,0,0,1,2,142.21V13.79A11.8,11.8,0,0,1,13.79,2H142.21A11.8,11.8,0,0,1,154,13.79V142.21A11.8,11.8,0,0,1,142.21,154ZM13.79,8A5.8,5.8,0,0,0,8,13.79V142.21A5.8,5.8,0,0,0,13.79,148H142.21a5.8,5.8,0,0,0,5.79-5.79V13.79A5.8,5.8,0,0,0,142.21,8Z" transform="translate(-2 -2)"/><path class="cls-1" d="M33.09,95.17a14.33,14.33,0,0,1-9.18-2.84,8.89,8.89,0,0,1-3.59-7.26,8.79,8.79,0,0,1,2.08-5.79A9.72,9.72,0,0,1,27.89,76v-.1a8.81,8.81,0,0,1-4.51-3A7.68,7.68,0,0,1,21.72,68,8.18,8.18,0,0,1,25,61.41a12.46,12.46,0,0,1,8.14-2.64,12.43,12.43,0,0,1,8.14,2.63,8.2,8.2,0,0,1,3.22,6.65,7.69,7.69,0,0,1-1.64,4.86,8.92,8.92,0,0,1-4.52,3V76A10,10,0,0,1,43.8,79.3a8.74,8.74,0,0,1,2.09,5.77,8.89,8.89,0,0,1-3.59,7.26A14.36,14.36,0,0,1,33.09,95.17Zm0-3.83a9.31,9.31,0,0,0,6-1.85,6,6,0,0,0,0-9.5,9.26,9.26,0,0,0-6-1.86,9.3,9.3,0,0,0-6,1.87,5.85,5.85,0,0,0-2.33,4.75,5.78,5.78,0,0,0,2.35,4.74A9.31,9.31,0,0,0,33.09,91.34Zm0-17.06a7.62,7.62,0,0,0,5-1.64,5.22,5.22,0,0,0,2-4.2,5.28,5.28,0,0,0-2-4.23,7.59,7.59,0,0,0-5.06-1.65A7.56,7.56,0,0,0,28,64.21a5.53,5.53,0,0,0,0,8.43A7.61,7.61,0,0,0,33.09,74.28Z" transform="translate(-2 -2)"/><path class="cls-1" d="M51.67,69.52A10,10,0,0,1,55,61.84a11.74,11.74,0,0,1,8.3-3.07,11.84,11.84,0,0,1,8,2.81,8.69,8.69,0,0,1,3.28,6.86,10.86,10.86,0,0,1-1.62,5.64,44.36,44.36,0,0,1-6.05,7.3L58,90.58v.1H75.13v3.91H51.89v-3L64.29,78.5A38.59,38.59,0,0,0,69,72.84a7.94,7.94,0,0,0,1.16-4.13,5.54,5.54,0,0,0-2-4.32A7.77,7.77,0,0,0,58,64.58a6.56,6.56,0,0,0-2.07,4.94v0H51.67Z" transform="translate(-2 -2)"/><path class="cls-1" d="M93.46,95.17a11,11,0,0,1-9.55-4.89Q80.48,85.39,80.48,77t3.45-13.27a11.68,11.68,0,0,1,19,0q3.44,4.89,3.43,13.27T103,90.27A11,11,0,0,1,93.46,95.17Zm-6.32-7.69a7.1,7.1,0,0,0,12.62,0Q102,83.65,102,77T99.74,66.5a7,7,0,0,0-12.57,0q-2.28,3.88-2.27,10.43T87.14,87.48Z" transform="translate(-2 -2)"/><path class="cls-1" d="M134.79,90.63v4H113V59.36h21.82v4H117.36V74.62h16.53v3.9H117.36V90.63Z" transform="translate(-2 -2)"/></svg>