<svg id="Layer_1" data-name="Layer 1" xmlns="http://www.w3.org/2000/svg" viewBox="0 0 152 152"><defs><style>.cls-1{stroke:#000;stroke-miterlimit:10;stroke-width:1.5px;}</style></defs><path d="M142.21,154H13.79A11.8,11.8,0,0,1,2,142.21V13.79A11.8,11.8,0,0,1,13.79,2H142.21A11.8,11.8,0,0,1,154,13.79V142.21A11.8,11.8,0,0,1,142.21,154ZM13.79,8A5.8,5.8,0,0,0,8,13.79V142.21A5.8,5.8,0,0,0,13.79,148H142.21a5.8,5.8,0,0,0,5.79-5.79V13.79A5.8,5.8,0,0,0,142.21,8Z" transform="translate(-2 -2)"/><path class="cls-1" d="M39.51,99.22q-7,0-11.56-3.59a11.16,11.16,0,0,1-4.53-9.15A11,11,0,0,1,26,79.19,12.3,12.3,0,0,1,33,75.07V75a11.22,11.22,0,0,1-5.69-3.77A9.68,9.68,0,0,1,25.18,65a10.36,10.36,0,0,1,4.07-8.34,15.74,15.74,0,0,1,10.26-3.32,15.66,15.66,0,0,1,10.26,3.31,10.36,10.36,0,0,1,4,8.38,9.64,9.64,0,0,1-2.07,6.12A11.21,11.21,0,0,1,46.06,75v.12A12.51,12.51,0,0,1,53,79.22a11,11,0,0,1,2.63,7.26,11.18,11.18,0,0,1-4.52,9.15Q46.58,99.22,39.51,99.22Zm0-4.83A11.67,11.67,0,0,0,47,92.05a7.56,7.56,0,0,0,0-12,11.72,11.72,0,0,0-7.52-2.33A11.66,11.66,0,0,0,32,80.1a7.53,7.53,0,0,0,0,12A11.71,11.71,0,0,0,39.51,94.39Zm0-21.5a9.55,9.55,0,0,0,6.35-2.07,6.56,6.56,0,0,0,2.48-5.29,6.65,6.65,0,0,0-2.46-5.33,9.5,9.5,0,0,0-6.37-2.08,9.54,9.54,0,0,0-6.37,2.08,6.65,6.65,0,0,0-2.46,5.33,6.57,6.57,0,0,0,2.46,5.29A9.59,9.59,0,0,0,39.51,72.89Z" transform="translate(-2 -2)"/><path class="cls-1" d="M78.2,99.22a15.9,15.9,0,0,1-10.63-3.6A12.64,12.64,0,0,1,63,86.36h5.45a8.27,8.27,0,0,0,3.1,5.77,10.37,10.37,0,0,0,6.74,2.23,10,10,0,0,0,7.37-2.83,9.87,9.87,0,0,0,2.84-7.32,10,10,0,0,0-2.84-7.37A9.79,9.79,0,0,0,78.35,74a11.87,11.87,0,0,0-5.63,1.33A9.37,9.37,0,0,0,68.85,79h-5.2l2.43-24.86H91.49V59H70.63L69.28,73.47h.12a10.14,10.14,0,0,1,4.14-3.14,14.43,14.43,0,0,1,5.8-1.14,14.14,14.14,0,0,1,10.53,4.2A14.57,14.57,0,0,1,94,84.05,14.47,14.47,0,0,1,89.58,95,15.78,15.78,0,0,1,78.2,99.22Z" transform="translate(-2 -2)"/><path class="cls-1" d="M116.27,99.22a13.88,13.88,0,0,1-12-6.17q-4.32-6.17-4.32-16.78t4.35-16.72a14.72,14.72,0,0,1,24,0q4.32,6.16,4.33,16.72T128.27,93A13.81,13.81,0,0,1,116.27,99.22Zm-8-9.69q2.83,4.86,8,4.86t7.94-4.85Q127,84.7,127,76.27t-2.83-13.18q-2.84-4.87-7.91-4.88t-7.93,4.89q-2.86,4.89-2.87,13.14Q105.47,84.67,108.3,89.53Z" transform="translate(-2 -2)"/></svg>