<svg id="Layer_1" data-name="Layer 1" xmlns="http://www.w3.org/2000/svg" viewBox="0 0 152 152"><defs><style>.cls-1{stroke:#000;stroke-miterlimit:10;stroke-width:1.5px;}</style></defs><path d="M142.21,154H13.79A11.8,11.8,0,0,1,2,142.21V13.79A11.8,11.8,0,0,1,13.79,2H142.21A11.8,11.8,0,0,1,154,13.79V142.21A11.8,11.8,0,0,1,142.21,154ZM13.79,8A5.8,5.8,0,0,0,8,13.79V142.21A5.8,5.8,0,0,0,13.79,148H142.21a5.8,5.8,0,0,0,5.79-5.79V13.79A5.8,5.8,0,0,0,142.21,8Z" transform="translate(-2 -2)"/><path class="cls-1" d="M39.51,99.67q-7,0-11.56-3.58a11.17,11.17,0,0,1-4.53-9.15A11,11,0,0,1,26,79.65,12.26,12.26,0,0,1,33,75.52V75.4a11.16,11.16,0,0,1-5.69-3.77,9.65,9.65,0,0,1-2.09-6.16,10.33,10.33,0,0,1,4.07-8.34,15.69,15.69,0,0,1,10.26-3.32,15.71,15.71,0,0,1,10.26,3.3,10.38,10.38,0,0,1,4,8.39,9.68,9.68,0,0,1-2.07,6.12,11.25,11.25,0,0,1-5.69,3.78v.12A12.52,12.52,0,0,1,53,79.68a11,11,0,0,1,2.63,7.26,11.19,11.19,0,0,1-4.52,9.15Q46.58,99.68,39.51,99.67Zm0-4.83A11.67,11.67,0,0,0,47,92.5a7.55,7.55,0,0,0,0-12,11.67,11.67,0,0,0-7.52-2.34A11.66,11.66,0,0,0,32,80.55a7.35,7.35,0,0,0-2.94,6,7.26,7.26,0,0,0,3,6A11.71,11.71,0,0,0,39.51,94.84Zm0-21.5a9.6,9.6,0,0,0,6.35-2.06A6.58,6.58,0,0,0,48.34,66a6.67,6.67,0,0,0-2.46-5.34,9.56,9.56,0,0,0-6.37-2.08,9.59,9.59,0,0,0-6.37,2.08A6.67,6.67,0,0,0,30.68,66a6.59,6.59,0,0,0,2.46,5.29A9.64,9.64,0,0,0,39.51,73.34Z" transform="translate(-2 -2)"/><path class="cls-1" d="M78.45,99.67a15.89,15.89,0,0,1-10.62-3.6,12.56,12.56,0,0,1-4.6-9.26h5.44a8.26,8.26,0,0,0,3.11,5.77,10.29,10.29,0,0,0,6.73,2.23A10,10,0,0,0,85.88,92a9.85,9.85,0,0,0,2.85-7.32,10,10,0,0,0-2.85-7.37,9.8,9.8,0,0,0-7.27-2.87A12,12,0,0,0,73,75.74,9.4,9.4,0,0,0,69.1,79.4H63.9l2.43-24.86H91.74v4.93H70.89L69.53,73.92h.13a10,10,0,0,1,4.13-3.13,14.47,14.47,0,0,1,5.8-1.14,14.16,14.16,0,0,1,10.54,4.2,14.54,14.54,0,0,1,4.13,10.66,14.43,14.43,0,0,1-4.43,10.92A15.75,15.75,0,0,1,78.45,99.67Z" transform="translate(-2 -2)"/><path class="cls-1" d="M116.5,99.67a15.89,15.89,0,0,1-10.62-3.6,12.56,12.56,0,0,1-4.6-9.26h5.44a8.26,8.26,0,0,0,3.11,5.77,10.29,10.29,0,0,0,6.73,2.23A10,10,0,0,0,123.93,92a9.85,9.85,0,0,0,2.85-7.32,10,10,0,0,0-2.85-7.37,9.8,9.8,0,0,0-7.27-2.87A12,12,0,0,0,111,75.74a9.4,9.4,0,0,0-3.88,3.66H102l2.43-24.86h25.41v4.93H108.94l-1.36,14.45h.13a10,10,0,0,1,4.13-3.13,14.47,14.47,0,0,1,5.8-1.14,14.16,14.16,0,0,1,10.54,4.2,14.54,14.54,0,0,1,4.13,10.66,14.43,14.43,0,0,1-4.43,10.92A15.75,15.75,0,0,1,116.5,99.67Z" transform="translate(-2 -2)"/></svg>