<svg id="Layer_1" data-name="Layer 1" xmlns="http://www.w3.org/2000/svg" viewBox="0 0 152 152"><defs><style>.cls-1{stroke:#000;stroke-miterlimit:10;stroke-width:1.5px;}</style></defs><path d="M142.21,154H13.79A11.8,11.8,0,0,1,2,142.21V13.79A11.8,11.8,0,0,1,13.79,2H142.21A11.8,11.8,0,0,1,154,13.79V142.21A11.8,11.8,0,0,1,142.21,154ZM13.79,8A5.8,5.8,0,0,0,8,13.79V142.21A5.8,5.8,0,0,0,13.79,148H142.21a5.8,5.8,0,0,0,5.79-5.79V13.79A5.8,5.8,0,0,0,142.21,8Z" transform="translate(-2 -2)"/><path class="cls-1" d="M39.51,99.22q-7,0-11.56-3.59a11.16,11.16,0,0,1-4.53-9.15A11,11,0,0,1,26,79.19,12.3,12.3,0,0,1,33,75.07V75a11.22,11.22,0,0,1-5.69-3.77A9.68,9.68,0,0,1,25.18,65a10.36,10.36,0,0,1,4.07-8.34,15.74,15.74,0,0,1,10.26-3.32,15.66,15.66,0,0,1,10.26,3.31,10.36,10.36,0,0,1,4,8.38,9.64,9.64,0,0,1-2.07,6.12A11.21,11.21,0,0,1,46.06,75v.12A12.51,12.51,0,0,1,53,79.22a11,11,0,0,1,2.63,7.26,11.18,11.18,0,0,1-4.52,9.15Q46.58,99.22,39.51,99.22Zm0-4.83A11.67,11.67,0,0,0,47,92.05a7.56,7.56,0,0,0,0-12,11.72,11.72,0,0,0-7.52-2.33A11.66,11.66,0,0,0,32,80.1a7.53,7.53,0,0,0,0,12A11.71,11.71,0,0,0,39.51,94.39Zm0-21.5a9.55,9.55,0,0,0,6.35-2.07,6.56,6.56,0,0,0,2.48-5.29,6.65,6.65,0,0,0-2.46-5.33,9.5,9.5,0,0,0-6.37-2.08,9.54,9.54,0,0,0-6.37,2.08,6.65,6.65,0,0,0-2.46,5.33,6.57,6.57,0,0,0,2.46,5.29A9.59,9.59,0,0,0,39.51,72.89Z" transform="translate(-2 -2)"/><path class="cls-1" d="M79.25,99.25a15.25,15.25,0,0,1-8.8-2.6,16.59,16.59,0,0,1-5.88-7.4A30.75,30.75,0,0,1,62.39,77q0-11.24,4.54-17.47a14.76,14.76,0,0,1,12.68-6.25,15.16,15.16,0,0,1,9.66,3.14,13.8,13.8,0,0,1,5.08,8.37H88.72A8.92,8.92,0,0,0,85.34,60a10.18,10.18,0,0,0-14.4,3q-3,4.77-3.2,13.63h.09a11.67,11.67,0,0,1,4.89-5.23,14.7,14.7,0,0,1,7.51-2A14.31,14.31,0,0,1,95,84.08,14.49,14.49,0,0,1,90.52,95,15.56,15.56,0,0,1,79.25,99.25ZM72,91.36a9.71,9.71,0,0,0,7.18,3,9.85,9.85,0,0,0,7.2-2.93,10.31,10.31,0,0,0,.12-14.32,9.81,9.81,0,0,0-7.22-2.81A10.1,10.1,0,0,0,72,77.07a9.36,9.36,0,0,0-2.91,7A9.92,9.92,0,0,0,72,91.36Z" transform="translate(-2 -2)"/><path class="cls-1" d="M117.35,99.22a15.9,15.9,0,0,1-10.63-3.6,12.64,12.64,0,0,1-4.6-9.26h5.45a8.27,8.27,0,0,0,3.1,5.77,10.37,10.37,0,0,0,6.74,2.23,10,10,0,0,0,7.37-2.83,9.91,9.91,0,0,0,2.84-7.32,10.06,10.06,0,0,0-2.84-7.37A9.79,9.79,0,0,0,117.5,74a11.84,11.84,0,0,0-5.63,1.33A9.37,9.37,0,0,0,108,79h-5.2l2.43-24.86h25.41V59H109.78l-1.35,14.46h.12a10.14,10.14,0,0,1,4.14-3.14,14.43,14.43,0,0,1,5.8-1.14A14.16,14.16,0,0,1,129,73.39a14.57,14.57,0,0,1,4.14,10.66A14.47,14.47,0,0,1,128.73,95,15.78,15.78,0,0,1,117.35,99.22Z" transform="translate(-2 -2)"/></svg>