<svg id="Layer_1" data-name="Layer 1" xmlns="http://www.w3.org/2000/svg" viewBox="0 0 152 152"><defs><style>.cls-1{isolation:isolate;}.cls-2{stroke:#000;stroke-miterlimit:10;stroke-width:2px;}</style></defs><path d="M140.21,152H11.79A11.8,11.8,0,0,1,0,140.21V11.79A11.8,11.8,0,0,1,11.79,0H140.21A11.8,11.8,0,0,1,152,11.79V140.21A11.8,11.8,0,0,1,140.21,152ZM11.79,6A5.8,5.8,0,0,0,6,11.79V140.21A5.8,5.8,0,0,0,11.79,146H140.21a5.8,5.8,0,0,0,5.79-5.79V11.79A5.8,5.8,0,0,0,140.21,6Z"/><g class="cls-1"><path class="cls-2" d="M25.91,93.93a15.19,15.19,0,0,1-9.73-3,9.39,9.39,0,0,1-3.8-7.7,9.27,9.27,0,0,1,2.2-6.13,10.28,10.28,0,0,1,5.82-3.47v-.1a9.42,9.42,0,0,1-4.79-3.17,8.19,8.19,0,0,1-1.76-5.19,8.67,8.67,0,0,1,3.43-7,13.18,13.18,0,0,1,8.63-2.8,13.22,13.22,0,0,1,8.63,2.78,8.73,8.73,0,0,1,3.4,7.06,8.16,8.16,0,0,1-1.73,5.14,9.45,9.45,0,0,1-4.79,3.19v.1a10.51,10.51,0,0,1,5.83,3.49,9.22,9.22,0,0,1,2.22,6.11,9.4,9.4,0,0,1-3.81,7.7A15.19,15.19,0,0,1,25.91,93.93Zm0-4.06a9.82,9.82,0,0,0,6.32-2,6.34,6.34,0,0,0,0-10.06,9.82,9.82,0,0,0-6.32-2,9.82,9.82,0,0,0-6.33,2,6.2,6.2,0,0,0-2.47,5,6.12,6.12,0,0,0,2.49,5A9.85,9.85,0,0,0,25.91,89.87Zm0-18.09a8,8,0,0,0,5.34-1.73,5.53,5.53,0,0,0,2.08-4.45,5.6,5.6,0,0,0-2.07-4.49,8,8,0,0,0-5.35-1.75,8.06,8.06,0,0,0-5.36,1.75,5.86,5.86,0,0,0,0,8.94A8,8,0,0,0,25.91,71.78Z"/><path class="cls-2" d="M58.33,94a12.8,12.8,0,0,1-7.4-2.19A13.93,13.93,0,0,1,46,85.55a25.73,25.73,0,0,1-1.84-10.27q0-9.45,3.82-14.7a12.43,12.43,0,0,1,10.67-5.25A12.75,12.75,0,0,1,66.76,58,11.55,11.55,0,0,1,71,65H66.3a7.46,7.46,0,0,0-2.85-4,8.57,8.57,0,0,0-12.11,2.5q-2.55,4-2.69,11.46h.08a9.81,9.81,0,0,1,4.11-4.39,12.28,12.28,0,0,1,6.32-1.66A12,12,0,0,1,71.55,81.2a12.2,12.2,0,0,1-3.74,9.15A13.11,13.11,0,0,1,58.33,94Zm-6.09-6.64a8.56,8.56,0,0,0,12.19-12A8.27,8.27,0,0,0,58.35,73a8.5,8.5,0,0,0-6.14,2.35,7.9,7.9,0,0,0-2.45,5.93A8.33,8.33,0,0,0,52.24,87.32Z"/><path class="cls-2" d="M89.38,93.93a13.37,13.37,0,0,1-8.94-3,10.61,10.61,0,0,1-3.87-7.78h4.58A7,7,0,0,0,83.76,88a8.7,8.7,0,0,0,5.67,1.87,8.38,8.38,0,0,0,6.19-2.38A8.29,8.29,0,0,0,98,81.3a8.42,8.42,0,0,0-2.4-6.19,8.23,8.23,0,0,0-6.11-2.42,10.07,10.07,0,0,0-4.74,1.11,8,8,0,0,0-3.26,3.08H77.14l2-20.91h21.37v4.14H83L81.87,72.27H82a8.3,8.3,0,0,1,3.48-2.63,12.09,12.09,0,0,1,4.87-1,11.9,11.9,0,0,1,8.87,3.53,12.23,12.23,0,0,1,3.48,9A12.18,12.18,0,0,1,99,90.36,13.25,13.25,0,0,1,89.38,93.93Z"/><path class="cls-2" d="M139.62,77.86q0,7.59-4.18,11.83t-11.65,4.24q-7.82,0-12.46-5.29t-4.64-14.19q0-8.74,4.63-13.92t12.47-5.18a16.24,16.24,0,0,1,10.31,3.33,14.13,14.13,0,0,1,5.29,8.89H134.5a11.64,11.64,0,0,0-19.75-4q-3.28,3.92-3.28,10.85t3.31,11.13a11,11,0,0,0,9,4.09,11.26,11.26,0,0,0,8.07-2.94,10,10,0,0,0,3.1-7.62v-.67H124.44V74.32h15.18Z"/></g></svg>