<svg id="Layer_1" data-name="Layer 1" xmlns="http://www.w3.org/2000/svg" viewBox="0 0 152 152"><defs><style>.cls-1{stroke:#000;stroke-miterlimit:10;stroke-width:1.5px;}</style></defs><path d="M142.21,154H13.79A11.8,11.8,0,0,1,2,142.21V13.79A11.8,11.8,0,0,1,13.79,2H142.21A11.8,11.8,0,0,1,154,13.79V142.21A11.8,11.8,0,0,1,142.21,154ZM13.79,8A5.8,5.8,0,0,0,8,13.79V142.21A5.8,5.8,0,0,0,13.79,148H142.21a5.8,5.8,0,0,0,5.79-5.79V13.79A5.8,5.8,0,0,0,142.21,8Z" transform="translate(-2 -2)"/><path class="cls-1" d="M40.69,99.67q-7,0-11.57-3.58a11.51,11.51,0,0,1-1.91-16.44,12.26,12.26,0,0,1,6.92-4.13V75.4a11.2,11.2,0,0,1-5.69-3.77,9.71,9.71,0,0,1-2.09-6.16,10.31,10.31,0,0,1,4.08-8.34,15.65,15.65,0,0,1,10.26-3.32,15.67,15.67,0,0,1,10.25,3.3A10.38,10.38,0,0,1,55,65.5a9.73,9.73,0,0,1-2.06,6.12,11.3,11.3,0,0,1-5.69,3.78v.12a12.53,12.53,0,0,1,6.93,4.16,10.93,10.93,0,0,1,2.63,7.26,11.16,11.16,0,0,1-4.52,9.15Q47.77,99.68,40.69,99.67Zm0-4.83a11.71,11.71,0,0,0,7.52-2.34,7.57,7.57,0,0,0,0-12,11.71,11.71,0,0,0-7.52-2.34,11.67,11.67,0,0,0-7.53,2.35,7.34,7.34,0,0,0-2.93,6,7.25,7.25,0,0,0,2.95,6A11.72,11.72,0,0,0,40.69,94.84Zm0-21.5A9.62,9.62,0,0,0,47,71.28,6.57,6.57,0,0,0,49.51,66a6.67,6.67,0,0,0-2.46-5.34,9.55,9.55,0,0,0-6.36-2.08,9.56,9.56,0,0,0-6.37,2.08A6.67,6.67,0,0,0,31.86,66a6.59,6.59,0,0,0,2.46,5.29A9.6,9.6,0,0,0,40.69,73.34Z" transform="translate(-2 -2)"/><path class="cls-1" d="M66.92,98.93,87,59.59v-.12H63.11V54.54H92.48v5.14L72.74,98.93Z" transform="translate(-2 -2)"/><path class="cls-1" d="M114.94,99.67a13.86,13.86,0,0,1-12-6.17q-4.34-6.16-4.33-16.78T102.93,60a14.73,14.73,0,0,1,24,0q4.32,6.18,4.32,16.72t-4.3,16.8A13.82,13.82,0,0,1,114.94,99.67ZM107,90q2.84,4.86,8,4.86T122.88,90q2.79-4.84,2.79-13.28t-2.83-13.18q-2.82-4.87-7.9-4.87T107,63.56q-2.86,4.89-2.86,13.13Q104.14,85.12,107,90Z" transform="translate(-2 -2)"/></svg>