<svg id="Layer_1" data-name="Layer 1" xmlns="http://www.w3.org/2000/svg" viewBox="0 0 152 152"><defs><style>.cls-1{stroke:#000;stroke-miterlimit:10;stroke-width:1.5px;}</style></defs><path d="M142.21,154H13.79A11.8,11.8,0,0,1,2,142.21V13.79A11.8,11.8,0,0,1,13.79,2H142.21A11.8,11.8,0,0,1,154,13.79V142.21A11.8,11.8,0,0,1,142.21,154ZM13.79,8A5.8,5.8,0,0,0,8,13.79V142.21A5.8,5.8,0,0,0,13.79,148H142.21a5.8,5.8,0,0,0,5.79-5.79V13.79A5.8,5.8,0,0,0,142.21,8Z" transform="translate(-2 -2)"/><path class="cls-1" d="M39.51,99.22q-7,0-11.56-3.59a11.16,11.16,0,0,1-4.53-9.15A11,11,0,0,1,26,79.19,12.3,12.3,0,0,1,33,75.07V75a11.22,11.22,0,0,1-5.69-3.77A9.68,9.68,0,0,1,25.18,65a10.36,10.36,0,0,1,4.07-8.34,15.74,15.74,0,0,1,10.26-3.32,15.66,15.66,0,0,1,10.26,3.31,10.36,10.36,0,0,1,4,8.38,9.64,9.64,0,0,1-2.07,6.12A11.21,11.21,0,0,1,46.06,75v.12A12.51,12.51,0,0,1,53,79.22a11,11,0,0,1,2.63,7.26,11.18,11.18,0,0,1-4.52,9.15Q46.58,99.22,39.51,99.22Zm0-4.83A11.67,11.67,0,0,0,47,92.05a7.56,7.56,0,0,0,0-12,11.72,11.72,0,0,0-7.52-2.33A11.66,11.66,0,0,0,32,80.1a7.53,7.53,0,0,0,0,12A11.71,11.71,0,0,0,39.51,94.39Zm0-21.5a9.55,9.55,0,0,0,6.35-2.07,6.56,6.56,0,0,0,2.48-5.29,6.65,6.65,0,0,0-2.46-5.33,9.5,9.5,0,0,0-6.37-2.08,9.54,9.54,0,0,0-6.37,2.08,6.65,6.65,0,0,0-2.46,5.33,6.57,6.57,0,0,0,2.46,5.29A9.59,9.59,0,0,0,39.51,72.89Z" transform="translate(-2 -2)"/><path class="cls-1" d="M78,99.22q-7,0-11.57-3.59a11.51,11.51,0,0,1-1.91-16.44,12.3,12.3,0,0,1,6.92-4.12V75a11.26,11.26,0,0,1-5.69-3.77A9.73,9.73,0,0,1,63.65,65a10.34,10.34,0,0,1,4.08-8.34A15.71,15.71,0,0,1,78,53.35a15.62,15.62,0,0,1,10.25,3.31A10.36,10.36,0,0,1,92.29,65a9.69,9.69,0,0,1-2.06,6.12A11.25,11.25,0,0,1,84.54,75v.12a12.51,12.51,0,0,1,6.93,4.15,10.93,10.93,0,0,1,2.63,7.26,11.15,11.15,0,0,1-4.52,9.15Q85.07,99.22,78,99.22Zm0-4.83a11.71,11.71,0,0,0,7.52-2.34,7.58,7.58,0,0,0,0-12A11.76,11.76,0,0,0,78,77.75a11.67,11.67,0,0,0-7.53,2.35,7.54,7.54,0,0,0,0,12A11.72,11.72,0,0,0,78,94.39Zm0-21.5a9.57,9.57,0,0,0,6.35-2.07,6.55,6.55,0,0,0,2.47-5.29,6.65,6.65,0,0,0-2.46-5.33A9.49,9.49,0,0,0,78,58.12a9.5,9.5,0,0,0-6.37,2.08,6.65,6.65,0,0,0-2.46,5.33,6.57,6.57,0,0,0,2.46,5.29A9.55,9.55,0,0,0,78,72.89Z" transform="translate(-2 -2)"/><path class="cls-1" d="M116.46,99.22q-7,0-11.57-3.59a11.18,11.18,0,0,1-4.52-9.15A11.05,11.05,0,0,1,103,79.19a12.33,12.33,0,0,1,6.92-4.12V75a11.26,11.26,0,0,1-5.69-3.77A9.73,9.73,0,0,1,102.12,65a10.34,10.34,0,0,1,4.08-8.34,15.73,15.73,0,0,1,10.26-3.32,15.66,15.66,0,0,1,10.26,3.31,10.38,10.38,0,0,1,4,8.38,9.69,9.69,0,0,1-2.06,6.12A11.21,11.21,0,0,1,123,75v.12A12.57,12.57,0,0,1,130,79.22a11,11,0,0,1,2.63,7.26,11.16,11.16,0,0,1-4.53,9.15Q123.54,99.22,116.46,99.22Zm0-4.83A11.71,11.71,0,0,0,124,92.05a7.56,7.56,0,0,0,0-12,11.76,11.76,0,0,0-7.52-2.33,11.62,11.62,0,0,0-7.52,2.35,7.53,7.53,0,0,0,0,12A11.72,11.72,0,0,0,116.46,94.39Zm0-21.5a9.57,9.57,0,0,0,6.35-2.07,6.56,6.56,0,0,0,2.48-5.29,6.66,6.66,0,0,0-2.47-5.33,10.78,10.78,0,0,0-12.73,0,6.65,6.65,0,0,0-2.46,5.33,6.57,6.57,0,0,0,2.46,5.29A9.55,9.55,0,0,0,116.46,72.89Z" transform="translate(-2 -2)"/></svg>