<svg id="Layer_1" data-name="Layer 1" xmlns="http://www.w3.org/2000/svg" viewBox="0 0 152 152"><defs><style>.cls-1{stroke:#000;stroke-miterlimit:10;stroke-width:1.5px;}</style></defs><path d="M142.21,154H13.79A11.8,11.8,0,0,1,2,142.21V13.79A11.8,11.8,0,0,1,13.79,2H142.21A11.8,11.8,0,0,1,154,13.79V142.21A11.8,11.8,0,0,1,142.21,154ZM13.79,8A5.8,5.8,0,0,0,8,13.79V142.21A5.8,5.8,0,0,0,13.79,148H142.21a5.8,5.8,0,0,0,5.79-5.79V13.79A5.8,5.8,0,0,0,142.21,8Z" transform="translate(-2 -2)"/><path class="cls-1" d="M38.37,98.67a15.32,15.32,0,0,1-9.69-3.13,13.55,13.55,0,0,1-5-8.37h5.63A9,9,0,0,0,32.65,92a9.51,9.51,0,0,0,5.79,1.83A9.63,9.63,0,0,0,47,89q3.06-4.82,3.19-13.67h-.1a11.14,11.14,0,0,1-4.78,5.27,14.72,14.72,0,0,1-7.61,2A14.34,14.34,0,0,1,23,67.94a14.44,14.44,0,0,1,4.45-10.87,15.56,15.56,0,0,1,11.27-4.29,15.25,15.25,0,0,1,8.83,2.6,16.46,16.46,0,0,1,5.85,7.36A30.92,30.92,0,0,1,55.57,75q0,11.22-4.52,17.45A14.75,14.75,0,0,1,38.37,98.67Zm.31-20.92A10.19,10.19,0,0,0,46,75a9.35,9.35,0,0,0,2.92-7A10,10,0,0,0,38.77,57.76a9.91,9.91,0,0,0-7.23,2.91,10.19,10.19,0,0,0-.09,14.25A9.85,9.85,0,0,0,38.68,77.75Z" transform="translate(-2 -2)"/><path class="cls-1" d="M78.61,98.67a13.86,13.86,0,0,1-12-6.17q-4.32-6.16-4.32-16.78T66.6,59a13.87,13.87,0,0,1,12-6.2,13.82,13.82,0,0,1,12,6.16q4.32,6.18,4.33,16.72t-4.31,16.8A13.81,13.81,0,0,1,78.61,98.67Zm-8-9.69q2.83,4.86,8,4.86T86.55,89q2.81-4.84,2.8-13.28T86.52,62.54q-2.83-4.87-7.91-4.87t-7.93,4.89q-2.87,4.89-2.87,13.13Q67.81,84.12,70.64,89Z" transform="translate(-2 -2)"/><path class="cls-1" d="M117.93,98.67a13.89,13.89,0,0,1-12.05-6.17q-4.32-6.16-4.32-16.78T105.92,59a14.73,14.73,0,0,1,24,0q4.32,6.18,4.32,16.72t-4.31,16.8A13.8,13.8,0,0,1,117.93,98.67ZM110,89q2.83,4.86,8,4.86A8.72,8.72,0,0,0,125.86,89q2.81-4.84,2.8-13.28t-2.83-13.18q-2.82-4.87-7.9-4.87T110,62.56q-2.86,4.89-2.86,13.13Q107.13,84.12,110,89Z" transform="translate(-2 -2)"/></svg>