<svg id="Layer_1" data-name="Layer 1" xmlns="http://www.w3.org/2000/svg" viewBox="0 0 152 152"><defs><style>.cls-1{stroke:#000;stroke-miterlimit:10;stroke-width:2px;}</style></defs><path d="M142.21,154H13.79A11.8,11.8,0,0,1,2,142.21V13.79A11.8,11.8,0,0,1,13.79,2H142.21A11.8,11.8,0,0,1,154,13.79V142.21A11.8,11.8,0,0,1,142.21,154ZM13.79,8A5.8,5.8,0,0,0,8,13.79V142.21A5.8,5.8,0,0,0,13.79,148H142.21a5.8,5.8,0,0,0,5.79-5.79V13.79A5.8,5.8,0,0,0,142.21,8Z" transform="translate(-2 -2)"/><path class="cls-1" d="M28.12,94.29a12.58,12.58,0,0,1-8-2.59A11.1,11.1,0,0,1,16,84.8h4.65a7.45,7.45,0,0,0,2.79,4,7.89,7.89,0,0,0,4.78,1.51,8,8,0,0,0,7.09-4q2.53-4,2.63-11.28h-.08a9.18,9.18,0,0,1-3.94,4.35A12.19,12.19,0,0,1,27.59,81,11.83,11.83,0,0,1,15.43,68.93a11.94,11.94,0,0,1,3.67-9,12.85,12.85,0,0,1,9.3-3.54,12.64,12.64,0,0,1,7.29,2.15,13.55,13.55,0,0,1,4.83,6.08,25.38,25.38,0,0,1,1.8,10.1q0,9.27-3.73,14.41A12.19,12.19,0,0,1,28.12,94.29ZM28.38,77a8.39,8.39,0,0,0,6-2.31,7.71,7.71,0,0,0,2.41-5.82,8.28,8.28,0,0,0-8.37-8.38,8.17,8.17,0,0,0-6,2.4,7.89,7.89,0,0,0-2.44,5.86,8,8,0,0,0,2.36,5.91A8.15,8.15,0,0,0,28.38,77Z" transform="translate(-2 -2)"/><path class="cls-1" d="M61.41,94.29a11.44,11.44,0,0,1-9.94-5.09Q47.9,84.12,47.9,75.35t3.6-13.8a11.45,11.45,0,0,1,9.91-5.11,11.41,11.41,0,0,1,9.89,5.09q3.57,5.09,3.57,13.8T71.31,89.19A11.4,11.4,0,0,1,61.41,94.29Zm-6.58-8a7.38,7.38,0,0,0,13.13,0q2.31-4,2.31-11T67.94,64.47a7.33,7.33,0,0,0-13.08,0q-2.36,4-2.36,10.85T54.83,86.3Z" transform="translate(-2 -2)"/><path class="cls-1" d="M93.93,94.29A11.44,11.44,0,0,1,84,89.2q-3.57-5.08-3.57-13.85T84,61.55a12.16,12.16,0,0,1,19.8,0q3.57,5.09,3.57,13.8t-3.56,13.86A11.4,11.4,0,0,1,93.93,94.29Zm-6.57-8a7.37,7.37,0,0,0,13.12,0q2.31-4,2.31-11t-2.33-10.88a7.33,7.33,0,0,0-13.08,0Q85,68.53,85,75.33T87.36,86.3Z" transform="translate(-2 -2)"/><path class="cls-1" d="M126.46,94.29a11.43,11.43,0,0,1-9.94-5.09Q113,84.12,113,75.35t3.59-13.8a12.17,12.17,0,0,1,19.81,0q3.56,5.09,3.56,13.8t-3.55,13.86A11.4,11.4,0,0,1,126.46,94.29Zm-6.58-8a7.38,7.38,0,0,0,13.13,0q2.31-4,2.31-11T133,64.47a7.32,7.32,0,0,0-13.07,0q-2.37,4-2.37,10.85T119.88,86.3Z" transform="translate(-2 -2)"/></svg>