<svg id="Layer_1" data-name="Layer 1" xmlns="http://www.w3.org/2000/svg" viewBox="0 0 152 152"><defs><style>.cls-1{stroke:#000;stroke-miterlimit:10;stroke-width:2px;}</style></defs><path d="M142.21,154H13.79A11.8,11.8,0,0,1,2,142.21V13.79A11.8,11.8,0,0,1,13.79,2H142.21A11.8,11.8,0,0,1,154,13.79V142.21A11.8,11.8,0,0,1,142.21,154ZM13.79,8A5.8,5.8,0,0,0,8,13.79V142.21A5.8,5.8,0,0,0,13.79,148H142.21a5.8,5.8,0,0,0,5.79-5.79V13.79A5.8,5.8,0,0,0,142.21,8Z" transform="translate(-2 -2)"/><path class="cls-1" d="M30.14,94.29a12.59,12.59,0,0,1-8-2.59A11.13,11.13,0,0,1,18,84.8h4.65a7.45,7.45,0,0,0,2.79,4,7.89,7.89,0,0,0,4.78,1.51,8,8,0,0,0,7.09-4q2.53-4,2.63-11.28h-.08a9.18,9.18,0,0,1-3.94,4.35A12.19,12.19,0,0,1,29.6,81,11.83,11.83,0,0,1,17.44,68.93a11.94,11.94,0,0,1,3.67-9,12.86,12.86,0,0,1,9.3-3.54,12.64,12.64,0,0,1,7.29,2.15,13.55,13.55,0,0,1,4.83,6.08,25.38,25.38,0,0,1,1.8,10.1q0,9.27-3.73,14.41A12.18,12.18,0,0,1,30.14,94.29ZM30.39,77a8.39,8.39,0,0,0,6-2.31,7.71,7.71,0,0,0,2.41-5.82,8.28,8.28,0,0,0-8.37-8.38,8.17,8.17,0,0,0-6,2.4,7.89,7.89,0,0,0-2.44,5.86,8,8,0,0,0,2.36,5.91A8.15,8.15,0,0,0,30.39,77Z" transform="translate(-2 -2)"/><path class="cls-1" d="M63.15,94.29a14.85,14.85,0,0,1-9.54-3A9.48,9.48,0,0,1,52,77.76a10.18,10.18,0,0,1,5.72-3.4v-.1a9.28,9.28,0,0,1-4.7-3.11,8,8,0,0,1-1.73-5.09,8.51,8.51,0,0,1,3.37-6.88,12.93,12.93,0,0,1,8.46-2.74,12.93,12.93,0,0,1,8.47,2.73A8.52,8.52,0,0,1,75,66.08a8,8,0,0,1-1.7,5.06,9.32,9.32,0,0,1-4.7,3.12v.1a10.34,10.34,0,0,1,5.73,3.43,9.09,9.09,0,0,1,2.17,6,9.23,9.23,0,0,1-3.73,7.55A14.91,14.91,0,0,1,63.15,94.29Zm0-4a9.68,9.68,0,0,0,6.21-1.93,6.24,6.24,0,0,0,0-9.88,9.62,9.62,0,0,0-6.21-1.93A9.61,9.61,0,0,0,57,78.51a6.22,6.22,0,0,0,0,9.87A9.7,9.7,0,0,0,63.15,90.31Zm0-17.75a8,8,0,0,0,5.25-1.7,5.44,5.44,0,0,0,2-4.37,5.54,5.54,0,0,0-2-4.41,7.89,7.89,0,0,0-5.26-1.71,7.86,7.86,0,0,0-5.25,1.71,5.51,5.51,0,0,0-2,4.41,5.43,5.43,0,0,0,2,4.37A7.91,7.91,0,0,0,63.15,72.56Z" transform="translate(-2 -2)"/><path class="cls-1" d="M82.44,67.61a10.43,10.43,0,0,1,3.45-8,13.29,13.29,0,0,1,16.94-.26,9.06,9.06,0,0,1,3.4,7.13,11.32,11.32,0,0,1-1.68,5.87A46.47,46.47,0,0,1,98.25,80L89,89.52v.1h17.85v4.06H82.67V90.54L95.56,77a39.3,39.3,0,0,0,4.89-5.89,8.24,8.24,0,0,0,1.21-4.29,5.75,5.75,0,0,0-2.12-4.49,8.06,8.06,0,0,0-10.53.2,6.79,6.79,0,0,0-2.16,5.13v0H82.44Z" transform="translate(-2 -2)"/><path class="cls-1" d="M125.64,94.29a13.15,13.15,0,0,1-8.78-3,10.4,10.4,0,0,1-3.79-7.64h4.49a6.84,6.84,0,0,0,2.57,4.76,8.49,8.49,0,0,0,5.56,1.84,8.57,8.57,0,0,0,6.08-14.46,8.11,8.11,0,0,0-6-2.37,9.77,9.77,0,0,0-4.64,1.09,7.72,7.72,0,0,0-3.2,3h-4.29l2-20.52h21v4.07H119.39L118.27,73h.11a8.22,8.22,0,0,1,3.41-2.59,12,12,0,0,1,4.79-.94A11.67,11.67,0,0,1,135.27,73,13,13,0,0,1,135,90.79,13,13,0,0,1,125.64,94.29Z" transform="translate(-2 -2)"/></svg>