<svg id="Layer_1" data-name="Layer 1" xmlns="http://www.w3.org/2000/svg" viewBox="0 0 152 152"><defs><style>.cls-1{stroke:#000;stroke-miterlimit:10;stroke-width:1.5px;}</style></defs><path d="M142.21,154H13.79A11.8,11.8,0,0,1,2,142.21V13.79A11.8,11.8,0,0,1,13.79,2H142.21A11.8,11.8,0,0,1,154,13.79V142.21A11.8,11.8,0,0,1,142.21,154ZM13.79,8A5.8,5.8,0,0,0,8,13.79V142.21A5.8,5.8,0,0,0,13.79,148H142.21a5.8,5.8,0,0,0,5.79-5.79V13.79A5.8,5.8,0,0,0,142.21,8Z" transform="translate(-2 -2)"/><path class="cls-1" d="M37.05,99.22a15.28,15.28,0,0,1-9.69-3.14,13.49,13.49,0,0,1-5.05-8.37h5.63a9.06,9.06,0,0,0,3.38,4.85,9.54,9.54,0,0,0,5.79,1.83,9.67,9.67,0,0,0,8.6-4.82q3.06-4.8,3.18-13.67H48.8A11.23,11.23,0,0,1,44,81.18a14.71,14.71,0,0,1-7.61,2A14.31,14.31,0,0,1,21.67,68.49a14.49,14.49,0,0,1,4.44-10.88,15.56,15.56,0,0,1,11.27-4.29,15.3,15.3,0,0,1,8.83,2.6,16.42,16.42,0,0,1,5.85,7.37,30.84,30.84,0,0,1,2.18,12.24q0,11.23-4.52,17.46A14.76,14.76,0,0,1,37.05,99.22Zm.3-20.92a10.16,10.16,0,0,0,7.33-2.8,9.37,9.37,0,0,0,2.92-7A10,10,0,0,0,37.45,58.3a9.91,9.91,0,0,0-7.23,2.91,9.57,9.57,0,0,0-3,7.09,9.7,9.7,0,0,0,2.86,7.17A9.85,9.85,0,0,0,37.35,78.3Z" transform="translate(-2 -2)"/><path class="cls-1" d="M76,99.22a15.28,15.28,0,0,1-9.69-3.14,13.49,13.49,0,0,1-5-8.37h5.63a9,9,0,0,0,3.39,4.85A9.49,9.49,0,0,0,76,94.39a9.66,9.66,0,0,0,8.6-4.82q3.06-4.8,3.18-13.67h-.09a11.21,11.21,0,0,1-4.78,5.28,14.78,14.78,0,0,1-7.62,2A14.32,14.32,0,0,1,60.58,68.49,14.49,14.49,0,0,1,65,57.61,15.57,15.57,0,0,1,76.3,53.32a15.29,15.29,0,0,1,8.82,2.6A16.36,16.36,0,0,1,91,63.29a30.66,30.66,0,0,1,2.18,12.24q0,11.23-4.52,17.46A14.76,14.76,0,0,1,76,99.22Zm.31-20.92a10.15,10.15,0,0,0,7.32-2.8,9.33,9.33,0,0,0,2.92-7,10.23,10.23,0,0,0-17.38-7.25A10.2,10.2,0,0,0,69,75.47,9.82,9.82,0,0,0,76.27,78.3Z" transform="translate(-2 -2)"/><path class="cls-1" d="M116.28,99.22a13.89,13.89,0,0,1-12-6.17q-4.32-6.17-4.32-16.78t4.35-16.72a14.72,14.72,0,0,1,24,0q4.34,6.16,4.33,16.72T128.28,93A13.81,13.81,0,0,1,116.28,99.22Zm-8-9.69q2.82,4.86,8,4.86t7.94-4.85Q127,84.7,127,76.27t-2.83-13.18q-2.84-4.87-7.91-4.88t-7.93,4.89q-2.86,4.89-2.86,13.14Q105.49,84.67,108.32,89.53Z" transform="translate(-2 -2)"/></svg>