<svg id="Layer_1" data-name="Layer 1" xmlns="http://www.w3.org/2000/svg" viewBox="0 0 152 152"><defs><style>.cls-1{stroke:#000;stroke-miterlimit:10;stroke-width:2px;}</style></defs><path d="M142.21,154H13.79A11.8,11.8,0,0,1,2,142.21V13.79A11.8,11.8,0,0,1,13.79,2H142.21A11.8,11.8,0,0,1,154,13.79V142.21A11.8,11.8,0,0,1,142.21,154ZM13.79,8A5.8,5.8,0,0,0,8,13.79V142.21A5.8,5.8,0,0,0,13.79,148H142.21a5.8,5.8,0,0,0,5.79-5.79V13.79A5.8,5.8,0,0,0,142.21,8Z" transform="translate(-2 -2)"/><path class="cls-1" d="M32.19,95.17a12.13,12.13,0,0,1-7.69-2.49,10.67,10.67,0,0,1-4-6.64H25a7.15,7.15,0,0,0,2.69,3.85,7.54,7.54,0,0,0,4.59,1.45,7.65,7.65,0,0,0,6.82-3.82q2.43-3.83,2.53-10.85h-.07a8.92,8.92,0,0,1-3.8,4.19,11.68,11.68,0,0,1-6,1.57,11.4,11.4,0,0,1-8.37-3.32A11.27,11.27,0,0,1,20,70.78a11.5,11.5,0,0,1,3.53-8.63,12.35,12.35,0,0,1,9-3.4,12.15,12.15,0,0,1,7,2.06,13.05,13.05,0,0,1,4.64,5.85,24.34,24.34,0,0,1,1.74,9.72q0,8.91-3.59,13.85A11.7,11.7,0,0,1,32.19,95.17Zm.24-16.6a8.05,8.05,0,0,0,5.81-2.22,7.39,7.39,0,0,0,2.32-5.59,8,8,0,0,0-8.05-8.06A7.85,7.85,0,0,0,26.77,65a8.1,8.1,0,0,0-.07,11.32A7.83,7.83,0,0,0,32.43,78.57Z" transform="translate(-2 -2)"/><path class="cls-1" d="M62.77,95.17a12.15,12.15,0,0,1-7.69-2.49,10.67,10.67,0,0,1-4-6.64h4.46a7.2,7.2,0,0,0,2.69,3.85,7.54,7.54,0,0,0,4.59,1.45,7.65,7.65,0,0,0,6.82-3.82q2.43-3.83,2.53-10.85H72.1a8.92,8.92,0,0,1-3.8,4.19,11.68,11.68,0,0,1-6,1.57,11.36,11.36,0,0,1-8.36-3.32,11.24,11.24,0,0,1-3.34-8.33,11.5,11.5,0,0,1,3.53-8.63A12.36,12.36,0,0,1,63,58.75a12.2,12.2,0,0,1,7,2.06,13.1,13.1,0,0,1,4.63,5.85,24.34,24.34,0,0,1,1.74,9.72q0,8.91-3.59,13.85A11.7,11.7,0,0,1,62.77,95.17ZM63,78.57a8.09,8.09,0,0,0,5.82-2.22,7.42,7.42,0,0,0,2.31-5.59,8,8,0,0,0-8-8.06A7.87,7.87,0,0,0,57.35,65a8.1,8.1,0,0,0-.07,11.32A7.83,7.83,0,0,0,63,78.57Z" transform="translate(-2 -2)"/><path class="cls-1" d="M94.47,95.17a11,11,0,0,1-9.55-4.89Q81.48,85.39,81.49,77t3.45-13.27a11.68,11.68,0,0,1,19,0q3.43,4.89,3.43,13.27T104,90.27A11,11,0,0,1,94.47,95.17Zm-6.32-7.69a7.1,7.1,0,0,0,12.62,0Q103,83.65,103,77T100.75,66.5a7,7,0,0,0-12.58,0q-2.27,3.88-2.27,10.43T88.15,87.48Z" transform="translate(-2 -2)"/><path class="cls-1" d="M135.5,90.63v4H113.68V59.36H135.5v4H118.07V74.62H134.6v3.9H118.07V90.63Z" transform="translate(-2 -2)"/></svg>