<svg id="Layer_1" data-name="Layer 1" xmlns="http://www.w3.org/2000/svg" viewBox="0 0 152 152"><defs><style>.cls-1{stroke:#000;stroke-miterlimit:10;stroke-width:1.5px;}</style></defs><path d="M142.21,154H13.79A11.8,11.8,0,0,1,2,142.21V13.79A11.8,11.8,0,0,1,13.79,2H142.21A11.8,11.8,0,0,1,154,13.79V142.21A11.8,11.8,0,0,1,142.21,154ZM13.79,8A5.8,5.8,0,0,0,8,13.79V142.21A5.8,5.8,0,0,0,13.79,148H142.21a5.8,5.8,0,0,0,5.79-5.79V13.79A5.8,5.8,0,0,0,142.21,8Z" transform="translate(-2 -2)"/><path class="cls-1" d="M58.47,98.48,54,85.78H36.35l-4.46,12.7H26.08L42.45,54.09h5.47L64.29,98.48ZM45.09,60.83,38,81.07h14.4l-7.1-20.24Z" transform="translate(-2 -2)"/><path class="cls-1" d="M78.71,98.48V60h-.12L66.84,68.43V62.58l11.81-8.49h5.41V98.48Z" transform="translate(-2 -2)"/><path class="cls-1" d="M96.24,66.89a12.66,12.66,0,0,1,4.18-9.68,16.08,16.08,0,0,1,20.52-.32,11,11,0,0,1,4.13,8.64,13.69,13.69,0,0,1-2,7.11,56.12,56.12,0,0,1-7.62,9.2L104.18,93.43v.13H125.8v4.92H96.52V94.67l15.63-16.46a49.17,49.17,0,0,0,5.92-7.14,10,10,0,0,0,1.46-5.2A7,7,0,0,0,117,60.43a9.77,9.77,0,0,0-12.75.24,8.22,8.22,0,0,0-2.62,6.22v0H96.24Z" transform="translate(-2 -2)"/></svg>