<svg id="Layer_1" data-name="Layer 1" xmlns="http://www.w3.org/2000/svg" viewBox="0 0 152 152"><defs><style>.cls-1{stroke:#000;stroke-miterlimit:10;stroke-width:1.5px;}</style></defs><path d="M142.21,154H13.79A11.8,11.8,0,0,1,2,142.21V13.79A11.8,11.8,0,0,1,13.79,2H142.21A11.8,11.8,0,0,1,154,13.79V142.21A11.8,11.8,0,0,1,142.21,154ZM13.79,8A5.8,5.8,0,0,0,8,13.79V142.21A5.8,5.8,0,0,0,13.79,148H142.21a5.8,5.8,0,0,0,5.79-5.79V13.79A5.8,5.8,0,0,0,142.21,8Z" transform="translate(-2 -2)"/><path class="cls-1" d="M58.47,98.48,54,85.78H36.35l-4.46,12.7H26.08L42.45,54.09h5.47L64.29,98.48ZM45.09,60.83,38,81.07h14.4l-7.1-20.24Z" transform="translate(-2 -2)"/><path class="cls-1" d="M78.71,98.48V60h-.12L66.84,68.43V62.58l11.81-8.49h5.41V98.48Z" transform="translate(-2 -2)"/><path class="cls-1" d="M105.56,78V73.32h5.32a9,9,0,0,0,6.25-2.2,7.21,7.21,0,0,0,2.43-5.59,6.84,6.84,0,0,0-2.25-5.38,10.82,10.82,0,0,0-12.58,0A8.05,8.05,0,0,0,102,65.72H96.64a12.71,12.71,0,0,1,4.38-9,15.1,15.1,0,0,1,10.17-3.36,15.31,15.31,0,0,1,10,3.23,10.16,10.16,0,0,1,4,8.22,10.28,10.28,0,0,1-2.46,7A11.08,11.08,0,0,1,116,75.35v.12a12.15,12.15,0,0,1,8,3.21,10.12,10.12,0,0,1,3,7.59,11.35,11.35,0,0,1-2.09,6.7,13.69,13.69,0,0,1-5.66,4.62,18.89,18.89,0,0,1-7.9,1.63q-6.9,0-11.11-3.45a12,12,0,0,1-4.52-9h5.32a7.78,7.78,0,0,0,3.11,5.58,13,13,0,0,0,14.38-.14,7,7,0,0,0,2.84-5.72,7.59,7.59,0,0,0-2.75-6.18A11.43,11.43,0,0,0,111.13,78Z" transform="translate(-2 -2)"/></svg>