<svg id="Layer_1" data-name="Layer 1" xmlns="http://www.w3.org/2000/svg" viewBox="0 0 152 152"><defs><style>.cls-1{stroke:#000;stroke-miterlimit:10;stroke-width:1.5px;}</style></defs><path d="M142.21,154H13.79A11.8,11.8,0,0,1,2,142.21V13.79A11.8,11.8,0,0,1,13.79,2H142.21A11.8,11.8,0,0,1,154,13.79V142.21A11.8,11.8,0,0,1,142.21,154ZM13.79,8A5.8,5.8,0,0,0,8,13.79V142.21A5.8,5.8,0,0,0,13.79,148H142.21a5.8,5.8,0,0,0,5.79-5.79V13.79A5.8,5.8,0,0,0,142.21,8Z" transform="translate(-2 -2)"/><path class="cls-1" d="M58.47,98.48,54,85.78H36.35l-4.46,12.7H26.08L42.45,54.09h5.47L64.29,98.48ZM45.09,60.83,38,81.07h14.4l-7.1-20.24Z" transform="translate(-2 -2)"/><path class="cls-1" d="M78.71,98.48V60h-.12L66.84,68.43V62.58l11.81-8.49h5.41V98.48Z" transform="translate(-2 -2)"/><path class="cls-1" d="M117.62,98.48V89.25H95.32v-5q2.87-5.33,7.27-12.15t12.2-18H123v30.3h6.28v4.86H123v9.23ZM100.79,84.27v.12h16.83V58.7h-.09Q105.88,75.35,100.79,84.27Z" transform="translate(-2 -2)"/></svg>