<svg id="Layer_1" data-name="Layer 1" xmlns="http://www.w3.org/2000/svg" viewBox="0 0 152 152"><defs><style>.cls-1{stroke:#000;stroke-miterlimit:10;stroke-width:1.5px;}</style></defs><path d="M142.21,154H13.79A11.8,11.8,0,0,1,2,142.21V13.79A11.8,11.8,0,0,1,13.79,2H142.21A11.8,11.8,0,0,1,154,13.79V142.21A11.8,11.8,0,0,1,142.21,154ZM13.79,8A5.8,5.8,0,0,0,8,13.79V142.21A5.8,5.8,0,0,0,13.79,148H142.21a5.8,5.8,0,0,0,5.79-5.79V13.79A5.8,5.8,0,0,0,142.21,8Z" transform="translate(-2 -2)"/><path class="cls-1" d="M58.82,93.29l-4.46-12.7H36.7l-4.46,12.7H26.42L42.79,48.9h5.47L64.63,93.29ZM45.43,55.64l-7.1,20.24h14.4L45.62,55.64Z" transform="translate(-2 -2)"/><path class="cls-1" d="M79.06,93.29V54.78h-.13L67.18,63.24V57.39L79,48.9h5.42V93.29Z" transform="translate(-2 -2)"/><path class="cls-1" d="M112.12,94a15.91,15.91,0,0,1-10.63-3.6,12.63,12.63,0,0,1-4.6-9.26h5.45a8.24,8.24,0,0,0,3.11,5.77,10.29,10.29,0,0,0,6.73,2.23,10,10,0,0,0,7.37-2.83A9.87,9.87,0,0,0,122.39,79a10,10,0,0,0-2.84-7.37,9.79,9.79,0,0,0-7.28-2.87,12,12,0,0,0-5.63,1.32,9.37,9.37,0,0,0-3.87,3.66h-5.2L100,48.9h25.41v4.93H104.55L103.2,68.28h.12a10,10,0,0,1,4.14-3.13,14.43,14.43,0,0,1,5.8-1.14,14.14,14.14,0,0,1,10.53,4.2,14.55,14.55,0,0,1,4.14,10.66,14.43,14.43,0,0,1-4.43,10.92A15.77,15.77,0,0,1,112.12,94Z" transform="translate(-2 -2)"/></svg>