<?xml version="1.0" encoding="utf-8"?>
<!-- Generator: Adobe Illustrator 25.4.1, SVG Export Plug-In . SVG Version: 6.00 Build 0)  -->
<svg version="1.1" id="Layer_1" xmlns="http://www.w3.org/2000/svg" xmlns:xlink="http://www.w3.org/1999/xlink" x="0px" y="0px"
	 viewBox="0 0 24 24" style="enable-background:new 0 0 24 24;" xml:space="preserve">
<style type="text/css">
	.st0{fill:#FFFFFF;}
</style>
<path class="st0" d="M12,2c2.8,0,5,2.2,5,5c0,2.8-2.2,5-5,5S7,9.8,7,7C7,4.2,9.2,2,12,2z M12,0C8.1,0,5,3.1,5,7c0,3.9,3.1,7,7,7
	s7-3.1,7-7C19,3.1,15.9,0,12,0z M18.4,13.4c-0.5,0.5-1.1,0.9-1.7,1.3c2.9,1.9,4.4,5.1,5,7.3H2.3c0.6-2.3,2.1-5.5,5-7.4
	c-0.6-0.4-1.2-0.8-1.7-1.3C1.4,16.4,0,21.8,0,24h24C24,21.9,22.6,16.4,18.4,13.4z"/>
</svg>
