<svg id="Layer_1" data-name="Layer 1" xmlns="http://www.w3.org/2000/svg" viewBox="0 0 28 23.84"><defs><style>.cls-1{fill:#fff;}</style></defs><path class="cls-1" d="M10.34.08H4.54A3.55,3.55,0,0,0,1,3.62V20.38a3.55,3.55,0,0,0,3.54,3.54h5.8a3.55,3.55,0,0,0,3.55-3.54V3.62A3.55,3.55,0,0,0,10.34.08Zm2.26,20.3a2.26,2.26,0,0,1-2.26,2.25H4.54a2.25,2.25,0,0,1-2.25-2.25V3.62A2.25,2.25,0,0,1,4.54,1.37h5.8A2.26,2.26,0,0,1,12.6,3.62Z" transform="translate(-1 -0.08)"/><path class="cls-1" d="M25.46.08h-5.8a3.55,3.55,0,0,0-3.55,3.54V20.38a3.55,3.55,0,0,0,3.55,3.54h5.8A3.55,3.55,0,0,0,29,20.38V3.62A3.55,3.55,0,0,0,25.46.08Zm2.25,20.3a2.25,2.25,0,0,1-2.25,2.25h-5.8a2.26,2.26,0,0,1-2.26-2.25V3.62a2.26,2.26,0,0,1,2.26-2.25h5.8a2.25,2.25,0,0,1,2.25,2.25Z" transform="translate(-1 -0.08)"/></svg>