<?xml version="1.0" encoding="utf-8"?>
<!-- Generator: Adobe Illustrator 25.4.1, SVG Export Plug-In . SVG Version: 6.00 Build 0)  -->
<svg version="1.1" id="Layer_1" xmlns="http://www.w3.org/2000/svg" xmlns:xlink="http://www.w3.org/1999/xlink" x="0px" y="0px"
	 viewBox="0 0 24 24" style="enable-background:new 0 0 24 24;" xml:space="preserve">
<style type="text/css">
	.st0{fill:#FFFFFF;}
</style>
<path class="st0" d="M19.7,4.2c-1.4-0.7-3-1.2-4.6-1.4c-0.2,0.4-0.4,0.8-0.6,1.2c-1.7-0.3-3.4-0.3-5.1,0C9.3,3.6,9.1,3.1,8.9,2.7
	C7.2,3,5.7,3.5,4.3,4.2C1.4,8.6,0.6,12.9,1,17.1c1.9,1.4,3.8,2.3,5.6,2.9c0.5-0.6,0.9-1.3,1.2-2c-0.7-0.3-1.3-0.6-1.9-0.9
	c0.2-0.1,0.3-0.2,0.5-0.4c3.7,1.7,7.6,1.7,11.3,0c0.2,0.1,0.3,0.3,0.5,0.4c-0.6,0.4-1.2,0.7-1.9,0.9c0.3,0.7,0.8,1.4,1.2,2
	c1.8-0.6,3.7-1.4,5.6-2.9C23.5,12.2,22.3,7.9,19.7,4.2z M8.3,14.5c-1.1,0-2-1-2-2.3c0-1.3,0.9-2.3,2-2.3c1.1,0,2,1,2,2.3
	C10.3,13.5,9.4,14.5,8.3,14.5z M15.7,14.5c-1.1,0-2-1-2-2.3c0-1.3,0.9-2.3,2-2.3c1.1,0,2,1,2,2.3C17.7,13.5,16.8,14.5,15.7,14.5z"/>
</svg>
