<?xml version="1.0" encoding="utf-8"?>
<!-- Generator: Adobe Illustrator 26.0.1, SVG Export Plug-In . SVG Version: 6.00 Build 0)  -->
<svg version="1.1" id="Layer_1" focusable="false" xmlns="http://www.w3.org/2000/svg" xmlns:xlink="http://www.w3.org/1999/xlink"
	 x="0px" y="0px" viewBox="0 0 576 512" style="enable-background:new 0 0 576 512;" xml:space="preserve">
<style type="text/css">
	.st0{fill:#FFFFFF;}
</style>
<path class="st0" d="M402.6,83.2l90.2,90.2c3.8,3.8,3.8,10,0,13.8L274.4,405.6l-92.8,10.3c-12.4,1.4-22.9-9.1-21.5-21.5l10.3-92.8
	L388.8,83.2C392.6,79.4,398.8,79.4,402.6,83.2L402.6,83.2z M564.6,60.3l-48.8-48.8c-15.2-15.2-39.9-15.2-55.2,0l-35.4,35.4
	c-3.8,3.8-3.8,10,0,13.8l90.2,90.2c3.8,3.8,10,3.8,13.8,0l35.4-35.4C579.8,100.2,579.8,75.5,564.6,60.3z M384,346.2V448H64V128
	h229.8c3.2,0,6.2-1.3,8.5-3.5l40-40c7.6-7.6,2.2-20.5-8.5-20.5H48C21.5,64,0,85.5,0,112v352c0,26.5,21.5,48,48,48h352
	c26.5,0,48-21.5,48-48V306.2c0-10.7-12.9-16-20.5-8.5l-40,40C385.3,340,384,343,384,346.2z"/>
</svg>
