<svg id="Layer_1" data-name="Layer 1" xmlns="http://www.w3.org/2000/svg" viewBox="0 0 152 152"><defs><style>.cls-1,.cls-2,.cls-3{fill:none;stroke:#000;stroke-linecap:round;}.cls-1,.cls-2{stroke-linejoin:round;}.cls-1,.cls-3{stroke-width:6px;}.cls-2{stroke-width:7px;}.cls-3{stroke-miterlimit:10;}</style></defs><path class="cls-1" d="M5,49.5V24.42A19.41,19.41,0,0,1,24.42,5H48.5" transform="translate(-2 -2)"/><path class="cls-1" d="M5,107.5v24.08A19.41,19.41,0,0,0,24.42,151H48.5" transform="translate(-2 -2)"/><path class="cls-1" d="M151,49.5V24.42A19.41,19.41,0,0,0,131.58,5H106.5" transform="translate(-2 -2)"/><path class="cls-1" d="M151,107.5v24.08A19.41,19.41,0,0,1,131.58,151H106.5" transform="translate(-2 -2)"/><line class="cls-2" x1="46" y1="66" x2="46" y2="53"/><line class="cls-2" x1="106" y1="66" x2="106" y2="53"/><path class="cls-1" d="M78.5,54.5V81.83a6.81,6.81,0,0,1-7,6.67H68" transform="translate(-2 -2)"/><path class="cls-3" d="M52.5,105.5a33.8,33.8,0,0,0,48,0" transform="translate(-2 -2)"/></svg>