<svg id="Layer_1" data-name="Layer 1" xmlns="http://www.w3.org/2000/svg" viewBox="0 0 1732.22 1769.83"><defs><style>.cls-1{fill:#4285f4;}.cls-2{fill:#34a853;}.cls-3{fill:#fbbc05;}.cls-4{fill:#ea4335;}</style></defs><path class="cls-1" d="M1742,997.83a1025.14,1025.14,0,0,0-14-167.4H894.69V1163h477.12c-21.39,109.14-84.07,201.32-177,264v221.23h284.64C1646.13,1494.12,1742,1267,1742,997.83Z" transform="translate(-9.78 -93)"/><path class="cls-2" d="M894.69,1862.83c238.93,0,438.77-79.64,584.78-214.59L1194.83,1427c-79.65,53.1-180.67,85.54-300.14,85.54-230.81,0-426.23-155.59-496.29-365.76H104.9v227.86C250.18,1663.73,548.84,1862.83,894.69,1862.83Z" transform="translate(-9.78 -93)"/><path class="cls-3" d="M398.4,1146.79a513.68,513.68,0,0,1-28-168.87c0-59,10.32-115.78,28-168.88V581.18H104.9C44.44,700.64,9.78,834.85,9.78,977.92s34.66,277.27,95.12,396.73Z" transform="translate(-9.78 -93)"/><path class="cls-4" d="M894.69,443.28c130.53,0,247,45,339.22,132.74l252.2-252.2C1333.46,180.75,1133.62,93,894.69,93,548.84,93,250.18,292.11,104.9,581.18L398.4,809C468.46,598.88,663.88,443.28,894.69,443.28Z" transform="translate(-9.78 -93)"/></svg>