<?xml version="1.0" encoding="utf-8"?>
<!-- Generator: Adobe Illustrator 25.4.1, SVG Export Plug-In . SVG Version: 6.00 Build 0)  -->
<svg version="1.1" id="Layer_1" xmlns="http://www.w3.org/2000/svg" xmlns:xlink="http://www.w3.org/1999/xlink" x="0px" y="0px"
	 viewBox="0 0 24 24" style="enable-background:new 0 0 24 24;" xml:space="preserve">
<style type="text/css">
	.st0{fill:#FFFFFF;}
</style>
<path class="st0" d="M24,12c0,6.6-5.4,12-12,12S0,18.6,0,12h2c0,5.5,4.5,10,10,10s10-4.5,10-10S17.5,2,12,2C9.2,2,6.7,3.1,4.9,5L7,7
	L0,8.4l1.3-7l2.2,2.2C5.7,1.4,8.7,0,12,0C18.6,0,24,5.4,24,12z M11,6v8h7v-2h-5V6H11z"/>
</svg>
