<svg id="Layer_1" data-name="Layer 1" xmlns="http://www.w3.org/2000/svg" viewBox="0 0 283.16 77.93"><defs><style>.cls-1{fill:#fff;}</style></defs><path class="cls-1" d="M19.44,64.77,15,81.46H3.52l17-64.62a16.23,16.23,0,0,1,4.62-8.46A16,16,0,0,1,35.53,3.54v0c.44,0,.91,0,1.39,0v0c.48,0,.95,0,1.39.06V3.59A16,16,0,0,1,48.72,8.43a16.22,16.22,0,0,1,4.62,8.47l17,64.56H58.8L54.4,64.77ZM51.5,53.63,42.43,19.18v.05h0a5.14,5.14,0,0,0-1.56-2.84,5.25,5.25,0,0,0-3.9-1.67v-.05A5.25,5.25,0,0,0,33,16.34a5,5,0,0,0-1.55,2.84h-.06v-.06L22.34,53.63Z" transform="translate(-3.52 -3.54)"/><path class="cls-1" d="M119.47,3.54q22.26,0,22.27,22.26H130.6q0-11.13-11.13-11.13H97.2q-11.13,0-11.13,7.51T113.9,38.05q27.84,8.34,27.84,25.88T119.47,81.46H97.2q-22.26,0-22.26-22.26H86.07q0,11.13,11.13,11.13h22.27q11.13,0,11.13-7.51T102.77,47Q74.94,38.61,74.94,21.07T97.2,3.54Z" transform="translate(-3.52 -3.54)"/><path class="cls-1" d="M162.28,64.77l-4.4,16.69H146.36l17-64.62A16.23,16.23,0,0,1,168,8.38a16,16,0,0,1,10.41-4.84v0c.45,0,.91,0,1.39,0v0c.49,0,.95,0,1.4.06V3.59a16,16,0,0,1,10.4,4.84,16.31,16.31,0,0,1,4.63,8.47l17,64.56H201.63l-4.4-16.69Zm32.06-11.14-9.07-34.45v.05h-.06a5.14,5.14,0,0,0-1.56-2.84,5.23,5.23,0,0,0-3.9-1.67v-.05a5.21,5.21,0,0,0-3.89,1.67,5,5,0,0,0-1.56,2.84h-.06v-.06l-9.07,34.51Z" transform="translate(-3.52 -3.54)"/><path class="cls-1" d="M219.89,3.54h44.53q22.26,0,22.27,22.26v5.57q0,22.26-22.27,22.26H231V81.46H219.89ZM231,14.67V42.5h33.4q11.13,0,11.13-11.13V25.8q0-11.13-11.13-11.13Z" transform="translate(-3.52 -3.54)"/></svg>