<?xml version="1.0" encoding="utf-8"?>
<!-- Generator: Adobe Illustrator 25.4.1, SVG Export Plug-In . SVG Version: 6.00 Build 0)  -->
<svg version="1.1" id="Layer_1" xmlns="http://www.w3.org/2000/svg" xmlns:xlink="http://www.w3.org/1999/xlink" x="0px" y="0px"
	 viewBox="0 0 24 24" style="enable-background:new 0 0 24 24;" xml:space="preserve">
<style type="text/css">
	.st0{fill:#FFFFFF;}
</style>
<path class="st0" d="M9.6,3.7C8.4,5.6,9,8.9,11,12.7c0.9,1.7,0.7,3,0.3,3.8c-1,2.2-3.7,2.8-6.5,3.5c-2,0.5-1.8,0.9-1.8,4H1l0-1.2
	c0-2.5,0.2-4,3.2-4.7c3.4-0.8,6.7-1.5,5.1-4.4C4.5,4.9,7.9,0,13,0c3.3,0,6,2.1,6,6.2C19,9.7,17,13,16.6,14h-2.1
	c0.4-1.5,2.5-4.4,2.5-7.8C17,1,11.1,1.2,9.6,3.7z M23,19h-8v2h8V19z"/>
</svg>
