<svg id="Layer_1" data-name="Layer 1" xmlns="http://www.w3.org/2000/svg" viewBox="0 0 154.5 154.75"><defs><style>.cls-1,.cls-2,.cls-3,.cls-5{fill:none;stroke:#000;stroke-linecap:round;}.cls-1,.cls-2{stroke-linejoin:round;}.cls-1,.cls-3{stroke-width:6px;}.cls-2,.cls-5{stroke-width:7px;}.cls-3,.cls-5{stroke-miterlimit:10;}.cls-4{fill:#fff;}</style></defs><path class="cls-1" d="M5,49.5V24.42A19.41,19.41,0,0,1,24.42,5H48.5" transform="translate(-1 0)"/><path class="cls-1" d="M5,107.5v24.08A19.41,19.41,0,0,0,24.42,151H48.5" transform="translate(-1 0)"/><path class="cls-1" d="M151,49.5V24.42A19.41,19.41,0,0,0,131.58,5H106.5" transform="translate(-1 0)"/><path class="cls-1" d="M151,107.5v24.08A19.41,19.41,0,0,1,131.58,151H106.5" transform="translate(-1 0)"/><line class="cls-2" x1="40.5" y1="61.5" x2="53.5" y2="61.5"/><line class="cls-2" x1="100.5" y1="61.5" x2="113.5" y2="61.5"/><path class="cls-1" d="M78.5,54.5V81.83a6.81,6.81,0,0,1-7,6.67H68" transform="translate(-1 0)"/><path class="cls-3" d="M100.5,115.5a33.8,33.8,0,0,0-48,0" transform="translate(-1 0)"/><rect class="cls-4" x="-25.34" y="71.59" width="207.18" height="11.31" transform="translate(76.54 -32.71) rotate(45)"/><line class="cls-5" x1="4.25" y1="4.75" x2="150.75" y2="151.25"/></svg>