<svg id="Layer_1" data-name="Layer 1" xmlns="http://www.w3.org/2000/svg" viewBox="0 0 157.97 157.97"><defs><style>.cls-1,.cls-3{fill:none;stroke:#000;stroke-linecap:round;stroke-miterlimit:10;}.cls-1{stroke-width:6px;}.cls-2{fill:#fff;}.cls-3{stroke-width:7px;}</style></defs><path class="cls-1" d="M12.91,118.2a149.75,149.75,0,0,1-5-27c-1.19-13-2.17-23.64,2-36a63.23,63.23,0,0,1,16-25" transform="translate(-2.03 -2.03)"/><path class="cls-1" d="M35.91,22.2A74.52,74.52,0,0,1,64.41,8.7a72.7,72.7,0,0,1,37,1,68.82,68.82,0,0,1,26,15" transform="translate(-2.03 -2.03)"/><path class="cls-1" d="M137.91,35.2a73.39,73.39,0,0,1,12,20,74.22,74.22,0,0,1,5,33" transform="translate(-2.03 -2.03)"/><path class="cls-1" d="M139.41,128.7a136.33,136.33,0,0,0,1.5-34.5c-1-11.43-1.85-22-7.5-33.5-2.73-5.55-13.27-27-38-34-2.85-.8-27-7.17-48,8-2,1.47-14.92,11-20,28-4,13.4-1.9,27.19-1,33,.53,3.48,1.07,5.54,2,12a200.11,200.11,0,0,1,2.06,20.89c.17,4.19.25,9.66-.06,16.11" transform="translate(-2.03 -2.03)"/><path class="cls-1" d="M120.91,142.2a279.84,279.84,0,0,0,1-47,74.52,74.52,0,0,0-2-14c-2-8.13-5.41-21.53-17-30C90.36,42,75.52,44,71.41,44.7" transform="translate(-2.03 -2.03)"/><path class="cls-1" d="M60.91,48.2a29.2,29.2,0,0,0-12,10c-4.26,6.29-4.7,12.64-5,18-.41,7.22.84,10,3,23a215.84,215.84,0,0,1,3,24,112.64,112.64,0,0,1-2,27" transform="translate(-2.03 -2.03)"/><path class="cls-1" d="M64.91,154.2c3.25-18,2.84-30.44,2-38-1-8.63-2-15-2-15-.66-3.61-1.23-6-2-11-.86-5.54-1.28-8.37-1-11a20.37,20.37,0,0,1,4-11c.46-.59,5.76-7.1,14-7s13.48,6.78,16,10c3.37,4.32,5.29,9.12,7,18a132.92,132.92,0,0,1,2,34" transform="translate(-2.03 -2.03)"/><path class="cls-1" d="M79.91,79.2a202.74,202.74,0,0,1,5.5,30.5,202.9,202.9,0,0,1-.5,45.5" transform="translate(-2.03 -2.03)"/><path class="cls-1" d="M104.37,137.24a62.06,62.06,0,0,1-.43,7,60.59,60.59,0,0,1-1.5,7.92" transform="translate(-2.03 -2.03)"/><rect class="cls-2" x="-24.33" y="74.65" width="210.68" height="12.73" transform="translate(78.99 -35.58) rotate(45)"/><line class="cls-3" x1="4.97" y1="4.97" x2="152.47" y2="152.47"/></svg>