<svg id="Layer_1" data-name="Layer 1" xmlns="http://www.w3.org/2000/svg" viewBox="0 0 113.26 169.51"><defs><style>.cls-1{fill:none;stroke:#000;stroke-linecap:round;stroke-miterlimit:10;stroke-width:7px;}</style></defs><path d="M59.4,12.89a8.46,8.46,0,0,1,1.45-1.24c2.91,4.57,5.81,9,8.6,13.51,13.71,22.05,27.08,44.31,36.48,68.63,6.73,17.39,5.6,34.08-2.51,47.44l3.67,5.48a59.72,59.72,0,0,0,7-14.07c5.4-15.93,2.22-30.81-4.09-45.58C97.62,58.13,81.15,31.54,64,5.3c-2.55-3.92-4.69-3.81-7.38.49-7.07,11.3-14.22,22.55-21.08,34l3.69,5.52C45.7,34.33,52.5,23.58,59.4,12.89Z" transform="translate(-4.24 -2.46)"/><path d="M89.58,156.1c-30.1,21.93-72.84,3.77-78.75-33.2-1.92-12,1.48-22.73,5.94-33.37A344.85,344.85,0,0,1,33.6,55.22l-3.79-5.68C20.54,65.58,11.88,82,6.55,99.83-4.07,135.39,23.39,172,60.54,172a55.72,55.72,0,0,0,39.78-17l-3.49-5.22A54.22,54.22,0,0,1,89.58,156.1Z" transform="translate(-4.24 -2.46)"/><line class="cls-1" x1="6.76" y1="9.54" x2="109.76" y2="163.54"/></svg>