<svg id="Layer_1" data-name="Layer 1" xmlns="http://www.w3.org/2000/svg" viewBox="0 0 152 152"><defs><style>.cls-1{stroke:#000;stroke-miterlimit:10;stroke-width:1.5px;}</style></defs><path d="M142.21,154H13.79A11.8,11.8,0,0,1,2,142.21V13.79A11.8,11.8,0,0,1,13.79,2H142.21A11.8,11.8,0,0,1,154,13.79V142.21A11.8,11.8,0,0,1,142.21,154ZM13.79,8A5.8,5.8,0,0,0,8,13.79V142.21A5.8,5.8,0,0,0,13.79,148H142.21a5.8,5.8,0,0,0,5.79-5.79V13.79A5.8,5.8,0,0,0,142.21,8Z" transform="translate(-2 -2)"/><path class="cls-1" d="M25.63,54H41.48A13.66,13.66,0,0,1,55.69,68.29a13.7,13.7,0,0,1-14.27,14.3H31.17V98.43H25.63ZM31.17,59v18.7H40q4.74,0,7.35-2.48A9,9,0,0,0,50,68.29a9,9,0,0,0-2.6-6.88C45.66,59.78,43.21,59,40,59Z" transform="translate(-2 -2)"/><path class="cls-1" d="M71.56,78V73.27h5.32a8.93,8.93,0,0,0,6.24-2.2,7.17,7.17,0,0,0,2.44-5.58,6.86,6.86,0,0,0-2.25-5.39,9.28,9.28,0,0,0-6.37-2,9.25,9.25,0,0,0-6.21,2A8,8,0,0,0,68,65.67H62.64a12.69,12.69,0,0,1,4.38-9,15.08,15.08,0,0,1,10.17-3.35,15.25,15.25,0,0,1,10,3.23,10.14,10.14,0,0,1,4,8.21,10.25,10.25,0,0,1-2.46,7A11,11,0,0,1,82,75.3v.12a12.16,12.16,0,0,1,8,3.22,10.1,10.1,0,0,1,3,7.58,11.45,11.45,0,0,1-2.09,6.71,13.65,13.65,0,0,1-5.66,4.61,18.78,18.78,0,0,1-7.91,1.63q-6.89,0-11.1-3.44a12,12,0,0,1-4.52-9h5.32a7.81,7.81,0,0,0,3.1,5.59,11.43,11.43,0,0,0,7.14,2.1,11.4,11.4,0,0,0,7.25-2.24,7,7,0,0,0,2.84-5.72,7.62,7.62,0,0,0-2.75-6.19A11.5,11.5,0,0,0,77.13,78Z" transform="translate(-2 -2)"/><path class="cls-1" d="M116.25,99.17a15.93,15.93,0,0,1-10.63-3.6A12.58,12.58,0,0,1,101,86.31h5.44a8.26,8.26,0,0,0,3.11,5.77,10.29,10.29,0,0,0,6.73,2.23,10,10,0,0,0,7.37-2.83,9.85,9.85,0,0,0,2.85-7.32,10,10,0,0,0-2.85-7.37,9.8,9.8,0,0,0-7.27-2.87,12,12,0,0,0-5.63,1.32,9.4,9.4,0,0,0-3.88,3.66h-5.2L104.13,54h25.41V59H108.69l-1.36,14.45h.13a10,10,0,0,1,4.13-3.13,14.47,14.47,0,0,1,5.8-1.14,14.16,14.16,0,0,1,10.54,4.2A14.54,14.54,0,0,1,132.06,84a14.43,14.43,0,0,1-4.43,10.92A15.75,15.75,0,0,1,116.25,99.17Z" transform="translate(-2 -2)"/></svg>