<svg id="Layer_1" data-name="Layer 1" xmlns="http://www.w3.org/2000/svg" viewBox="0 0 152 152"><defs><style>.cls-1{stroke:#000;stroke-miterlimit:10;stroke-width:1.5px;}</style></defs><path d="M142.21,154H13.79A11.8,11.8,0,0,1,2,142.21V13.79A11.8,11.8,0,0,1,13.79,2H142.21A11.8,11.8,0,0,1,154,13.79V142.21A11.8,11.8,0,0,1,142.21,154ZM13.79,8A5.8,5.8,0,0,0,8,13.79V142.21A5.8,5.8,0,0,0,13.79,148H142.21a5.8,5.8,0,0,0,5.79-5.79V13.79A5.8,5.8,0,0,0,142.21,8Z" transform="translate(-2 -2)"/><path class="cls-1" d="M25.63,54H41.48A13.66,13.66,0,0,1,55.69,68.29a13.7,13.7,0,0,1-14.27,14.3H31.17V98.43H25.63ZM31.17,59v18.7H40q4.74,0,7.35-2.48A9,9,0,0,0,50,68.29a9,9,0,0,0-2.6-6.88C45.66,59.78,43.21,59,40,59Z" transform="translate(-2 -2)"/><path class="cls-1" d="M76.63,99.17A15.32,15.32,0,0,1,66.94,96a13.48,13.48,0,0,1-5-8.37h5.63a9,9,0,0,0,3.38,4.84,9.51,9.51,0,0,0,5.78,1.83,9.65,9.65,0,0,0,8.6-4.81q3.06-4.82,3.19-13.68h-.1a11.16,11.16,0,0,1-4.78,5.28,14.78,14.78,0,0,1-7.62,2A14.34,14.34,0,0,1,61.25,68.44,14.44,14.44,0,0,1,65.7,57.57,15.56,15.56,0,0,1,77,53.28a15.25,15.25,0,0,1,8.83,2.6,16.38,16.38,0,0,1,5.84,7.36,30.74,30.74,0,0,1,2.19,12.25q0,11.22-4.52,17.45A14.75,14.75,0,0,1,76.63,99.17Zm.31-20.92a10.19,10.19,0,0,0,7.32-2.79,9.35,9.35,0,0,0,2.92-7A10.23,10.23,0,0,0,69.8,61.17a10.19,10.19,0,0,0-.09,14.25A9.85,9.85,0,0,0,76.94,78.25Z" transform="translate(-2 -2)"/><path class="cls-1" d="M116.68,99.17a15.9,15.9,0,0,1-10.63-3.6,12.63,12.63,0,0,1-4.6-9.26h5.44A8.3,8.3,0,0,0,110,92.08a10.31,10.31,0,0,0,6.74,2.23,10,10,0,0,0,7.37-2.83A9.88,9.88,0,0,0,127,84.16a10.07,10.07,0,0,0-2.84-7.37,9.84,9.84,0,0,0-7.28-2.87,12,12,0,0,0-5.63,1.32,9.37,9.37,0,0,0-3.87,3.66h-5.2L104.56,54H130V59H109.11l-1.35,14.45h.12A10,10,0,0,1,112,70.29a14.4,14.4,0,0,1,5.8-1.14,14.16,14.16,0,0,1,10.53,4.2A14.55,14.55,0,0,1,132.49,84a14.47,14.47,0,0,1-4.43,10.92A15.77,15.77,0,0,1,116.68,99.17Z" transform="translate(-2 -2)"/></svg>