<?xml version="1.0" encoding="utf-8"?>
<!-- Generator: Adobe Illustrator 25.4.1, SVG Export Plug-In . SVG Version: 6.00 Build 0)  -->
<svg version="1.1" id="Layer_1" xmlns="http://www.w3.org/2000/svg" xmlns:xlink="http://www.w3.org/1999/xlink" x="0px" y="0px"
	 viewBox="0 0 24 24" style="enable-background:new 0 0 24 24;" xml:space="preserve">
<style type="text/css">
	.st0{fill:#FFFFFF;}
</style>
<path class="st0" d="M24,11.8c0-1.5-1.2-2.6-2.7-2.6c-0.7,0-1.4,0.3-1.8,0.7c-1.8-1.2-4.3-1.9-7-2L14,3.2l4,0.9l0,0.1
	c0,1.2,1,2.2,2.2,2.2c1.2,0,2.2-1,2.2-2.2S21.4,2,20.2,2c-0.9,0-1.7,0.6-2,1.4l-4.3-1c-0.2,0-0.4,0.1-0.4,0.2l-1.7,5.2
	c-2.8,0-5.4,0.8-7.3,2C4,9.4,3.4,9.1,2.7,9.1C1.2,9.1,0,10.3,0,11.8c0,1,0.5,1.8,1.3,2.3c-0.1,0.3-0.1,0.6-0.1,0.9
	C1.2,18.8,6,22,11.9,22s10.7-3.2,10.7-7.1c0-0.3,0-0.5-0.1-0.8C23.4,13.7,24,12.8,24,11.8z M6.8,13.6c0-0.9,0.7-1.6,1.6-1.6
	s1.6,0.7,1.6,1.6s-0.7,1.6-1.6,1.6S6.8,14.5,6.8,13.6z M15.8,18.3c-0.8,0.8-2,1.2-3.8,1.2l0,0l0,0c-1.8,0-3-0.4-3.8-1.2
	c-0.1-0.1-0.1-0.4,0-0.5c0.1-0.1,0.4-0.1,0.5,0c0.6,0.6,1.7,1,3.3,1l0,0l0,0c1.6,0,2.6-0.3,3.3-1c0.1-0.1,0.4-0.1,0.5,0
	C16,17.9,16,18.1,15.8,18.3z M15.6,15.2c-0.9,0-1.6-0.7-1.6-1.6s0.7-1.6,1.6-1.6c0.9,0,1.6,0.7,1.6,1.6S16.5,15.2,15.6,15.2z"/>
</svg>
