<svg id="Layer_1" data-name="Layer 1" xmlns="http://www.w3.org/2000/svg" viewBox="0 0 200 100"><defs><style>.cls-1{fill:#f3f3f3;}.cls-2{fill:#1428a0;}</style></defs><rect class="cls-1" width="200" height="100"/><path class="cls-2" d="M6.72,43.5a3.21,3.21,0,0,1,0-1.31A2.07,2.07,0,0,1,9,40.5a2.15,2.15,0,0,1,2.32,2,1.71,1.71,0,0,1,0,.32v1.55h6.24V42.56c0-5.44-4.91-6.31-8.44-6.31-4.44,0-8.07,1.47-8.74,5.56a8.69,8.69,0,0,0,0,3.37c1.08,5.11,10,6.59,11.26,9.83a3.24,3.24,0,0,1,0,1.85,2.15,2.15,0,0,1-2.44,1.69,2.23,2.23,0,0,1-2.48-1.94,1.88,1.88,0,0,1,0-.34V53.86H0v1.92c0,5.59,4.39,7.27,9.09,7.27,4.52,0,8.23-1.54,8.83-5.73a12.21,12.21,0,0,0,0-4.09C16.92,48,7.43,46.43,6.72,43.5Zm81.34.06a3.5,3.5,0,0,1,0-1.29,2.05,2.05,0,0,1,2.27-1.67,2.12,2.12,0,0,1,2.29,1.92,1.82,1.82,0,0,1,0,.33v1.53h6.17V42.64c0-5.39-4.83-6.24-8.33-6.24-4.41,0-8,1.45-8.66,5.51a8.48,8.48,0,0,0,.06,3.33C82.93,50.3,91.73,51.76,93,55a3.35,3.35,0,0,1,0,1.83c-.19.83-.75,1.67-2.41,1.67a2.2,2.2,0,0,1-2.47-1.91,1.83,1.83,0,0,1,0-.33V53.78H81.47v1.91c0,5.53,4.33,7.2,9,7.2,4.47,0,8.16-1.53,8.75-5.66a12,12,0,0,0,0-4C98.15,48,88.77,46.46,88.06,43.56Zm56.79,13.63-5.93-20.14h-9.28V61.78h6.14L135.42,41l6.36,20.78h8.9V37.05H144.5Zm-118-20.14-4.63,25H29L32.47,38.9l3.41,23.15h6.71L38,37.05Zm37.78,0L61.47,56.6,58.32,37.05H48.12l-.54,25h6.25L54,38.9l4.3,23.15h6.34l4.3-23.15.17,23.15h6.27l-.56-25Zm58.12,0h-6.33v18.5a4.14,4.14,0,0,1-.06,1,2.49,2.49,0,0,1-4.79,0,4.14,4.14,0,0,1-.06-1V37.05h-6.32V55a13.25,13.25,0,0,0,.06,1.65c.44,4.67,4.12,6.19,8.72,6.19s8.29-1.52,8.73-6.19a12.88,12.88,0,0,0,0-1.65Zm43.43,11V51.7h2.56v3.62a4.72,4.72,0,0,1-.07,1,2.7,2.7,0,0,1-5.11,0,6.63,6.63,0,0,1-.07-1V43.86a5.24,5.24,0,0,1,.11-1.18A2.61,2.61,0,0,1,166.88,41a2.65,2.65,0,0,1,1.72,1.71,6.85,6.85,0,0,1,.08,1v1.39h6.24v-.82a15.32,15.32,0,0,0,0-1.66c-.47-4.69-4.34-6.18-8.77-6.18s-8.23,1.5-8.78,6.18c0,.43-.13,1.2-.13,1.66V54.76a12.83,12.83,0,0,0,.1,1.65c.41,4.56,4.37,6.18,8.79,6.18s8.38-1.62,8.79-6.18c.07-.84.08-1.19.09-1.65v-6.7Z"/></svg>