<?xml version="1.0" encoding="utf-8"?>
<!-- Generator: Adobe Illustrator 25.4.1, SVG Export Plug-In . SVG Version: 6.00 Build 0)  -->
<svg version="1.1" id="Layer_1" xmlns="http://www.w3.org/2000/svg" xmlns:xlink="http://www.w3.org/1999/xlink" x="0px" y="0px"
	 viewBox="0 0 24 24" style="enable-background:new 0 0 24 24;" xml:space="preserve">
<style type="text/css">
	.st0{fill:#FFFFFF;}
</style>
<path class="st0" d="M23.8,21.6l-6.2-6.2c1.2-1.6,1.9-3.6,1.9-5.7c0-5.4-4.4-9.7-9.7-9.7C4.4,0,0,4.4,0,9.7c0,5.4,4.4,9.7,9.7,9.7
	c2,0,3.9-0.6,5.5-1.7l6.2,6.2C21.5,24,23.8,21.6,23.8,21.6z M2.9,9.7c0-3.8,3.1-6.9,6.9-6.9s6.9,3.1,6.9,6.9s-3.1,6.9-6.9,6.9
	C5.9,16.6,2.9,13.5,2.9,9.7z"/>
</svg>
