<svg id="Layer_1" data-name="Layer 1" xmlns="http://www.w3.org/2000/svg" viewBox="0 0 120 174"><defs><style>.cls-1{fill:#fff;}</style></defs><path class="cls-1" d="M120,174H0V0H120Zm-59.46-2c24.13,0,45.6-16,53.51-39.32,5.4-15.93,2.22-30.81-4.09-45.58C97.62,58.13,81.15,31.54,64,5.3c-2.55-3.92-4.69-3.81-7.38.49-8.48,13.55-17.1,27-25.15,40.82-9.9,17-19.3,34.27-25,53.22C-4.07,135.39,23.39,172,60.54,172Z"/><path d="M60.54,172c-37.15,0-64.61-36.57-54-72.13,5.66-19,15.06-36.25,25-53.22,8.05-13.8,16.67-27.27,25.15-40.82,2.69-4.3,4.83-4.41,7.38-.49C81.15,31.54,97.62,58.13,110,87.06c6.31,14.77,9.49,29.65,4.09,45.58C106.14,156,84.67,172,60.54,172Zm.31-160.31a8.46,8.46,0,0,0-1.45,1.24C43.52,37.51,28.12,62.41,16.77,89.53c-4.46,10.64-7.86,21.36-5.94,33.37,5.91,37,48.65,55.13,78.75,33.2,19.64-14.31,25.9-37.61,16.35-62.31-9.4-24.32-22.77-46.58-36.48-68.63C66.66,20.66,63.76,16.22,60.85,11.65Z"/><path class="cls-1" d="M60.85,11.65c2.91,4.57,5.81,9,8.6,13.51,13.71,22.05,27.08,44.31,36.48,68.63,9.55,24.7,3.29,48-16.35,62.31-30.1,21.93-72.84,3.77-78.75-33.2-1.92-12,1.48-22.73,5.94-33.37,11.35-27.12,26.75-52,42.63-76.64A8.46,8.46,0,0,1,60.85,11.65Z"/></svg>